<mxfile host="Electron" modified="2023-05-01T00:35:42.104Z" agent="Mozilla/5.0 (Macintosh; Intel Mac OS X 10_15_7) AppleWebKit/537.36 (KHTML, like Gecko) draw.io/21.2.1 Chrome/112.0.5615.87 Electron/24.1.2 Safari/537.36" etag="JjiaVGsdtyLSnq2np7kr" version="21.2.1" type="device">
  <diagram name="Page-1" id="xjZvKfOel7peh5mD1noz">
    <mxGraphModel dx="984" dy="747" grid="1" gridSize="10" guides="1" tooltips="1" connect="1" arrows="1" fold="1" page="1" pageScale="1" pageWidth="850" pageHeight="1100" math="0" shadow="0">
      <root>
        <mxCell id="0" />
        <mxCell id="1" parent="0" />
        <mxCell id="99eaHwufiaXae5ccycro-5" value="MCDC" style="ellipse;whiteSpace=wrap;html=1;fontSize=24;fontStyle=1;strokeWidth=3;fillColor=none;verticalAlign=top;" vertex="1" parent="1">
          <mxGeometry x="3080" y="1496" width="630" height="304" as="geometry" />
        </mxCell>
        <mxCell id="99eaHwufiaXae5ccycro-4" value="Decision/Condition&lt;br&gt;Coverage" style="ellipse;whiteSpace=wrap;html=1;fontSize=24;fontStyle=1;strokeWidth=3;fillColor=none;verticalAlign=top;" vertex="1" parent="1">
          <mxGeometry x="3120" y="1560" width="540" height="232" as="geometry" />
        </mxCell>
        <mxCell id="99eaHwufiaXae5ccycro-6" value="&lt;br&gt;Multiple Condition Coverage" style="ellipse;whiteSpace=wrap;html=1;fontSize=24;fontStyle=1;strokeWidth=3;fillColor=none;verticalAlign=top;" vertex="1" parent="1">
          <mxGeometry x="3040" y="1430" width="710" height="380" as="geometry" />
        </mxCell>
        <mxCell id="99eaHwufiaXae5ccycro-2" value="&lt;br&gt;Branch Coverage" style="ellipse;whiteSpace=wrap;html=1;fontSize=24;fontStyle=1;strokeWidth=3;fillColor=none;verticalAlign=top;" vertex="1" parent="1">
          <mxGeometry x="3160" y="1610" width="240" height="156" as="geometry" />
        </mxCell>
        <mxCell id="O-6mFqRPEfm9RQHit08T-2" value="" style="rounded=0;whiteSpace=wrap;html=1;fontColor=#000000;fillColor=none;strokeColor=#FF0000;strokeWidth=2;" parent="1" vertex="1">
          <mxGeometry x="150" y="2230" width="410" height="400" as="geometry" />
        </mxCell>
        <mxCell id="PV1EFJcUjrgo-LFW3s-f-2" value="" style="endArrow=open;endFill=1;endSize=12;html=1;rounded=0;fontStyle=1;fontSize=14;" parent="1" edge="1">
          <mxGeometry width="160" relative="1" as="geometry">
            <mxPoint x="40" y="640" as="sourcePoint" />
            <mxPoint x="200" y="640" as="targetPoint" />
          </mxGeometry>
        </mxCell>
        <mxCell id="PV1EFJcUjrgo-LFW3s-f-3" value="association" style="text;html=1;strokeColor=none;fillColor=none;align=center;verticalAlign=middle;whiteSpace=wrap;rounded=0;fontStyle=1;fontSize=14;" parent="1" vertex="1">
          <mxGeometry x="40" y="610" width="160" height="30" as="geometry" />
        </mxCell>
        <mxCell id="PV1EFJcUjrgo-LFW3s-f-4" value="" style="endArrow=diamondThin;endFill=1;endSize=24;html=1;rounded=0;fontStyle=1;fontSize=14;" parent="1" edge="1">
          <mxGeometry width="160" relative="1" as="geometry">
            <mxPoint x="40" y="720" as="sourcePoint" />
            <mxPoint x="200" y="720" as="targetPoint" />
          </mxGeometry>
        </mxCell>
        <mxCell id="PV1EFJcUjrgo-LFW3s-f-5" value="composition" style="text;html=1;strokeColor=none;fillColor=none;align=center;verticalAlign=middle;whiteSpace=wrap;rounded=0;fontStyle=1;fontSize=14;" parent="1" vertex="1">
          <mxGeometry x="40" y="690" width="160" height="30" as="geometry" />
        </mxCell>
        <mxCell id="PV1EFJcUjrgo-LFW3s-f-6" value="" style="endArrow=diamondThin;endFill=0;endSize=24;html=1;rounded=0;fontStyle=1;fontSize=14;" parent="1" edge="1">
          <mxGeometry width="160" relative="1" as="geometry">
            <mxPoint x="40" y="800" as="sourcePoint" />
            <mxPoint x="200" y="800" as="targetPoint" />
          </mxGeometry>
        </mxCell>
        <mxCell id="PV1EFJcUjrgo-LFW3s-f-7" value="aggregation" style="text;html=1;strokeColor=none;fillColor=none;align=center;verticalAlign=middle;whiteSpace=wrap;rounded=0;fontStyle=1;fontSize=14;" parent="1" vertex="1">
          <mxGeometry x="40" y="770" width="160" height="30" as="geometry" />
        </mxCell>
        <mxCell id="PV1EFJcUjrgo-LFW3s-f-8" value="" style="endArrow=block;dashed=1;endFill=0;endSize=12;html=1;rounded=0;fontStyle=1;fontSize=14;" parent="1" edge="1">
          <mxGeometry width="160" relative="1" as="geometry">
            <mxPoint x="240" y="640" as="sourcePoint" />
            <mxPoint x="400" y="640" as="targetPoint" />
          </mxGeometry>
        </mxCell>
        <mxCell id="PV1EFJcUjrgo-LFW3s-f-9" value="implementation" style="text;html=1;strokeColor=none;fillColor=none;align=center;verticalAlign=middle;whiteSpace=wrap;rounded=0;fontStyle=1;fontSize=14;" parent="1" vertex="1">
          <mxGeometry x="240" y="610" width="160" height="30" as="geometry" />
        </mxCell>
        <mxCell id="PV1EFJcUjrgo-LFW3s-f-10" value="Extends" style="endArrow=block;endSize=16;endFill=0;html=1;rounded=0;fontStyle=1;fontSize=14;" parent="1" edge="1">
          <mxGeometry width="160" relative="1" as="geometry">
            <mxPoint x="240" y="720" as="sourcePoint" />
            <mxPoint x="400" y="720" as="targetPoint" />
          </mxGeometry>
        </mxCell>
        <mxCell id="PV1EFJcUjrgo-LFW3s-f-11" value="generalization" style="text;html=1;strokeColor=none;fillColor=none;align=center;verticalAlign=middle;whiteSpace=wrap;rounded=0;fontStyle=1;fontSize=14;" parent="1" vertex="1">
          <mxGeometry x="240" y="690" width="160" height="30" as="geometry" />
        </mxCell>
        <mxCell id="PV1EFJcUjrgo-LFW3s-f-12" value="Use" style="endArrow=open;endSize=12;dashed=1;html=1;rounded=0;fontStyle=1;fontSize=14;" parent="1" edge="1">
          <mxGeometry width="160" relative="1" as="geometry">
            <mxPoint x="240" y="800" as="sourcePoint" />
            <mxPoint x="400" y="800" as="targetPoint" />
          </mxGeometry>
        </mxCell>
        <mxCell id="PV1EFJcUjrgo-LFW3s-f-13" value="dependency" style="text;html=1;strokeColor=none;fillColor=none;align=center;verticalAlign=middle;whiteSpace=wrap;rounded=0;fontStyle=1;fontSize=14;" parent="1" vertex="1">
          <mxGeometry x="240" y="780" width="160" height="30" as="geometry" />
        </mxCell>
        <mxCell id="PV1EFJcUjrgo-LFW3s-f-18" value="&lt;p style=&quot;margin:0px;margin-top:4px;text-align:center;&quot;&gt;&lt;b&gt;Class&lt;/b&gt;&lt;/p&gt;&lt;hr size=&quot;1&quot;&gt;&lt;p style=&quot;margin:0px;margin-left:4px;&quot;&gt;- field: Type&lt;/p&gt;&lt;hr size=&quot;1&quot;&gt;&lt;p style=&quot;margin:0px;margin-left:4px;&quot;&gt;+ method(): Type&lt;/p&gt;" style="verticalAlign=top;align=left;overflow=fill;fontSize=12;fontFamily=Helvetica;html=1;" parent="1" vertex="1">
          <mxGeometry x="580" y="640" width="160" height="90" as="geometry" />
        </mxCell>
        <mxCell id="PV1EFJcUjrgo-LFW3s-f-19" value="" style="endArrow=classic;html=1;rounded=0;entryX=-0.006;entryY=0.4;entryDx=0;entryDy=0;entryPerimeter=0;exitX=1;exitY=0.5;exitDx=0;exitDy=0;" parent="1" source="PV1EFJcUjrgo-LFW3s-f-20" target="PV1EFJcUjrgo-LFW3s-f-18" edge="1">
          <mxGeometry width="50" height="50" relative="1" as="geometry">
            <mxPoint x="510" y="674.5" as="sourcePoint" />
            <mxPoint x="560" y="674.5" as="targetPoint" />
          </mxGeometry>
        </mxCell>
        <mxCell id="PV1EFJcUjrgo-LFW3s-f-20" value="attribute" style="text;html=1;strokeColor=none;fillColor=none;align=center;verticalAlign=middle;whiteSpace=wrap;rounded=0;fontStyle=1;fontSize=14;" parent="1" vertex="1">
          <mxGeometry x="450" y="660" width="60" height="30" as="geometry" />
        </mxCell>
        <mxCell id="PV1EFJcUjrgo-LFW3s-f-21" value="" style="endArrow=classic;html=1;rounded=0;entryX=0;entryY=0.75;entryDx=0;entryDy=0;exitX=1;exitY=0.5;exitDx=0;exitDy=0;" parent="1" source="PV1EFJcUjrgo-LFW3s-f-22" target="PV1EFJcUjrgo-LFW3s-f-18" edge="1">
          <mxGeometry width="50" height="50" relative="1" as="geometry">
            <mxPoint x="500" y="714.5" as="sourcePoint" />
            <mxPoint x="569.04" y="716" as="targetPoint" />
          </mxGeometry>
        </mxCell>
        <mxCell id="PV1EFJcUjrgo-LFW3s-f-22" value="operation" style="text;html=1;strokeColor=none;fillColor=none;align=center;verticalAlign=middle;whiteSpace=wrap;rounded=0;fontStyle=1;fontSize=14;" parent="1" vertex="1">
          <mxGeometry x="440" y="700" width="70" height="30" as="geometry" />
        </mxCell>
        <mxCell id="R69NQJKKHj9QpN-TUXng-1" value="Customer" style="swimlane;fontStyle=1;align=center;verticalAlign=top;childLayout=stackLayout;horizontal=1;startSize=26;horizontalStack=0;resizeParent=1;resizeParentMax=0;resizeLast=0;collapsible=1;marginBottom=0;" parent="1" vertex="1">
          <mxGeometry x="120" y="920" width="160" height="130" as="geometry" />
        </mxCell>
        <mxCell id="R69NQJKKHj9QpN-TUXng-2" value="- _name: String" style="text;strokeColor=none;fillColor=none;align=left;verticalAlign=top;spacingLeft=4;spacingRight=4;overflow=hidden;rotatable=0;points=[[0,0.5],[1,0.5]];portConstraint=eastwest;" parent="R69NQJKKHj9QpN-TUXng-1" vertex="1">
          <mxGeometry y="26" width="160" height="26" as="geometry" />
        </mxCell>
        <mxCell id="R69NQJKKHj9QpN-TUXng-3" value="" style="line;strokeWidth=1;fillColor=none;align=left;verticalAlign=middle;spacingTop=-1;spacingLeft=3;spacingRight=3;rotatable=0;labelPosition=right;points=[];portConstraint=eastwest;strokeColor=inherit;" parent="R69NQJKKHj9QpN-TUXng-1" vertex="1">
          <mxGeometry y="52" width="160" height="8" as="geometry" />
        </mxCell>
        <mxCell id="R69NQJKKHj9QpN-TUXng-4" value="+ Customer(String)&#xa;+ addRental(Rental): void&#xa;+ getName(): String&#xa;+ statement(): String" style="text;strokeColor=none;fillColor=none;align=left;verticalAlign=top;spacingLeft=4;spacingRight=4;overflow=hidden;rotatable=0;points=[[0,0.5],[1,0.5]];portConstraint=eastwest;" parent="R69NQJKKHj9QpN-TUXng-1" vertex="1">
          <mxGeometry y="60" width="160" height="70" as="geometry" />
        </mxCell>
        <mxCell id="R69NQJKKHj9QpN-TUXng-5" value="Rental" style="swimlane;fontStyle=1;align=center;verticalAlign=top;childLayout=stackLayout;horizontal=1;startSize=26;horizontalStack=0;resizeParent=1;resizeParentMax=0;resizeLast=0;collapsible=1;marginBottom=0;" parent="1" vertex="1">
          <mxGeometry x="400" y="920" width="160" height="120" as="geometry" />
        </mxCell>
        <mxCell id="R69NQJKKHj9QpN-TUXng-6" value="- _daysRented: int" style="text;strokeColor=none;fillColor=none;align=left;verticalAlign=top;spacingLeft=4;spacingRight=4;overflow=hidden;rotatable=0;points=[[0,0.5],[1,0.5]];portConstraint=eastwest;" parent="R69NQJKKHj9QpN-TUXng-5" vertex="1">
          <mxGeometry y="26" width="160" height="26" as="geometry" />
        </mxCell>
        <mxCell id="R69NQJKKHj9QpN-TUXng-7" value="" style="line;strokeWidth=1;fillColor=none;align=left;verticalAlign=middle;spacingTop=-1;spacingLeft=3;spacingRight=3;rotatable=0;labelPosition=right;points=[];portConstraint=eastwest;strokeColor=inherit;" parent="R69NQJKKHj9QpN-TUXng-5" vertex="1">
          <mxGeometry y="52" width="160" height="8" as="geometry" />
        </mxCell>
        <mxCell id="R69NQJKKHj9QpN-TUXng-8" value="+ Rental(Movie, int)&#xa;+ getDaysRented(): int&#xa;+ getMovie(): Movie" style="text;strokeColor=none;fillColor=none;align=left;verticalAlign=top;spacingLeft=4;spacingRight=4;overflow=hidden;rotatable=0;points=[[0,0.5],[1,0.5]];portConstraint=eastwest;" parent="R69NQJKKHj9QpN-TUXng-5" vertex="1">
          <mxGeometry y="60" width="160" height="60" as="geometry" />
        </mxCell>
        <mxCell id="OQfz_WFB2d55QO-OLQLl-6" value="-_movie" style="endArrow=open;endFill=1;endSize=12;html=1;rounded=0;entryX=0.5;entryY=0;entryDx=0;entryDy=0;" parent="R69NQJKKHj9QpN-TUXng-5" target="OQfz_WFB2d55QO-OLQLl-1" edge="1">
          <mxGeometry x="0.5062" y="30" width="160" relative="1" as="geometry">
            <mxPoint x="80" y="119" as="sourcePoint" />
            <mxPoint x="240" y="119" as="targetPoint" />
            <mxPoint as="offset" />
          </mxGeometry>
        </mxCell>
        <mxCell id="OQfz_WFB2d55QO-OLQLl-1" value="Movie" style="swimlane;fontStyle=1;align=center;verticalAlign=top;childLayout=stackLayout;horizontal=1;startSize=26;horizontalStack=0;resizeParent=1;resizeParentMax=0;resizeLast=0;collapsible=1;marginBottom=0;" parent="1" vertex="1">
          <mxGeometry x="380" y="1120" width="200" height="198" as="geometry" />
        </mxCell>
        <mxCell id="OQfz_WFB2d55QO-OLQLl-2" value="+ Rental(Movie, int)&#xa;+ REGULAR: int = 0 {readOnly}&#xa;+ NEW_RELEASE: int = 1 {readOnly}&#xa;+ CHILDREN: int = 2 {readOnly}&#xa;- _title: String&#xa;- _priceCode: int" style="text;strokeColor=none;fillColor=none;align=left;verticalAlign=top;spacingLeft=4;spacingRight=4;overflow=hidden;rotatable=0;points=[[0,0.5],[1,0.5]];portConstraint=eastwest;" parent="OQfz_WFB2d55QO-OLQLl-1" vertex="1">
          <mxGeometry y="26" width="200" height="94" as="geometry" />
        </mxCell>
        <mxCell id="OQfz_WFB2d55QO-OLQLl-3" value="" style="line;strokeWidth=1;fillColor=none;align=left;verticalAlign=middle;spacingTop=-1;spacingLeft=3;spacingRight=3;rotatable=0;labelPosition=right;points=[];portConstraint=eastwest;strokeColor=inherit;" parent="OQfz_WFB2d55QO-OLQLl-1" vertex="1">
          <mxGeometry y="120" width="200" height="8" as="geometry" />
        </mxCell>
        <mxCell id="OQfz_WFB2d55QO-OLQLl-4" value="+ Movie(String, int)&#xa;+ getPriceCode(): int&#xa;+ setPriceCode(int): void&#xa;+ getTitle(): String" style="text;strokeColor=none;fillColor=none;align=left;verticalAlign=top;spacingLeft=4;spacingRight=4;overflow=hidden;rotatable=0;points=[[0,0.5],[1,0.5]];portConstraint=eastwest;" parent="OQfz_WFB2d55QO-OLQLl-1" vertex="1">
          <mxGeometry y="128" width="200" height="70" as="geometry" />
        </mxCell>
        <mxCell id="OQfz_WFB2d55QO-OLQLl-5" value="-_rentals" style="endArrow=open;endFill=1;endSize=12;html=1;rounded=0;" parent="1" edge="1">
          <mxGeometry x="0.5" y="10" width="160" relative="1" as="geometry">
            <mxPoint x="280" y="990" as="sourcePoint" />
            <mxPoint x="400" y="990" as="targetPoint" />
            <mxPoint as="offset" />
          </mxGeometry>
        </mxCell>
        <mxCell id="OQfz_WFB2d55QO-OLQLl-7" value="Customer" style="swimlane;fontStyle=1;align=center;verticalAlign=top;childLayout=stackLayout;horizontal=1;startSize=26;horizontalStack=0;resizeParent=1;resizeParentMax=0;resizeLast=0;collapsible=1;marginBottom=0;" parent="1" vertex="1">
          <mxGeometry x="680" y="920" width="220" height="200" as="geometry" />
        </mxCell>
        <mxCell id="OQfz_WFB2d55QO-OLQLl-8" value="- _name: String" style="text;strokeColor=none;fillColor=none;align=left;verticalAlign=top;spacingLeft=4;spacingRight=4;overflow=hidden;rotatable=0;points=[[0,0.5],[1,0.5]];portConstraint=eastwest;" parent="OQfz_WFB2d55QO-OLQLl-7" vertex="1">
          <mxGeometry y="26" width="220" height="26" as="geometry" />
        </mxCell>
        <mxCell id="OQfz_WFB2d55QO-OLQLl-9" value="" style="line;strokeWidth=1;fillColor=none;align=left;verticalAlign=middle;spacingTop=-1;spacingLeft=3;spacingRight=3;rotatable=0;labelPosition=right;points=[];portConstraint=eastwest;strokeColor=inherit;" parent="OQfz_WFB2d55QO-OLQLl-7" vertex="1">
          <mxGeometry y="52" width="220" height="8" as="geometry" />
        </mxCell>
        <mxCell id="OQfz_WFB2d55QO-OLQLl-10" value="+ Customer(String)&#xa;+ addRental(Rental): void&#xa;+ getName(): String&#xa;+ statement(): String&#xa;+ setRentals(Vector&lt;Rental&gt;): void&#xa;+ getRentals(): Vector&lt;Rental&gt;&#xa;+ getTotalCharge(): double&#xa;+ getTotalFrequentRenterPoints(): int&#xa;+ htmlStatement(): String" style="text;strokeColor=none;fillColor=none;align=left;verticalAlign=top;spacingLeft=4;spacingRight=4;overflow=hidden;rotatable=0;points=[[0,0.5],[1,0.5]];portConstraint=eastwest;fontColor=#000000;" parent="OQfz_WFB2d55QO-OLQLl-7" vertex="1">
          <mxGeometry y="60" width="220" height="140" as="geometry" />
        </mxCell>
        <mxCell id="OQfz_WFB2d55QO-OLQLl-11" value="Rental" style="swimlane;fontStyle=1;align=center;verticalAlign=top;childLayout=stackLayout;horizontal=1;startSize=26;horizontalStack=0;resizeParent=1;resizeParentMax=0;resizeLast=0;collapsible=1;marginBottom=0;" parent="1" vertex="1">
          <mxGeometry x="1020" y="940" width="190" height="140" as="geometry" />
        </mxCell>
        <mxCell id="OQfz_WFB2d55QO-OLQLl-12" value="- _daysRented: int" style="text;strokeColor=none;fillColor=none;align=left;verticalAlign=top;spacingLeft=4;spacingRight=4;overflow=hidden;rotatable=0;points=[[0,0.5],[1,0.5]];portConstraint=eastwest;" parent="OQfz_WFB2d55QO-OLQLl-11" vertex="1">
          <mxGeometry y="26" width="190" height="26" as="geometry" />
        </mxCell>
        <mxCell id="OQfz_WFB2d55QO-OLQLl-13" value="" style="line;strokeWidth=1;fillColor=none;align=left;verticalAlign=middle;spacingTop=-1;spacingLeft=3;spacingRight=3;rotatable=0;labelPosition=right;points=[];portConstraint=eastwest;strokeColor=inherit;" parent="OQfz_WFB2d55QO-OLQLl-11" vertex="1">
          <mxGeometry y="52" width="190" height="8" as="geometry" />
        </mxCell>
        <mxCell id="OQfz_WFB2d55QO-OLQLl-14" value="+ Rental(Movie, int)&#xa;+ getDaysRented(): int&#xa;+ getMovie(): Movie&#xa;+ getCharge(): double&#xa;+ getFrequentRenterPoints(): int" style="text;strokeColor=none;fillColor=none;align=left;verticalAlign=top;spacingLeft=4;spacingRight=4;overflow=hidden;rotatable=0;points=[[0,0.5],[1,0.5]];portConstraint=eastwest;" parent="OQfz_WFB2d55QO-OLQLl-11" vertex="1">
          <mxGeometry y="60" width="190" height="80" as="geometry" />
        </mxCell>
        <mxCell id="OQfz_WFB2d55QO-OLQLl-15" value="-_movie" style="endArrow=open;endFill=1;endSize=12;html=1;rounded=0;entryX=0.5;entryY=0;entryDx=0;entryDy=0;" parent="OQfz_WFB2d55QO-OLQLl-11" target="OQfz_WFB2d55QO-OLQLl-16" edge="1">
          <mxGeometry x="0.5062" y="30" width="160" relative="1" as="geometry">
            <mxPoint x="80" y="140" as="sourcePoint" />
            <mxPoint x="240" y="119" as="targetPoint" />
            <mxPoint as="offset" />
          </mxGeometry>
        </mxCell>
        <mxCell id="OQfz_WFB2d55QO-OLQLl-16" value="Movie" style="swimlane;fontStyle=1;align=center;verticalAlign=top;childLayout=stackLayout;horizontal=1;startSize=26;horizontalStack=0;resizeParent=1;resizeParentMax=0;resizeLast=0;collapsible=1;marginBottom=0;" parent="1" vertex="1">
          <mxGeometry x="1000" y="1150" width="200" height="198" as="geometry" />
        </mxCell>
        <mxCell id="OQfz_WFB2d55QO-OLQLl-17" value="+ Rental(Movie, int)&#xa;+ REGULAR: int = 0 {readOnly}&#xa;+ NEW_RELEASE: int = 1 {readOnly}&#xa;+ CHILDREN: int = 2 {readOnly}&#xa;- _title: String&#xa;- _priceCode: int" style="text;strokeColor=none;fillColor=none;align=left;verticalAlign=top;spacingLeft=4;spacingRight=4;overflow=hidden;rotatable=0;points=[[0,0.5],[1,0.5]];portConstraint=eastwest;" parent="OQfz_WFB2d55QO-OLQLl-16" vertex="1">
          <mxGeometry y="26" width="200" height="94" as="geometry" />
        </mxCell>
        <mxCell id="OQfz_WFB2d55QO-OLQLl-18" value="" style="line;strokeWidth=1;fillColor=none;align=left;verticalAlign=middle;spacingTop=-1;spacingLeft=3;spacingRight=3;rotatable=0;labelPosition=right;points=[];portConstraint=eastwest;strokeColor=inherit;" parent="OQfz_WFB2d55QO-OLQLl-16" vertex="1">
          <mxGeometry y="120" width="200" height="8" as="geometry" />
        </mxCell>
        <mxCell id="OQfz_WFB2d55QO-OLQLl-19" value="+ Movie(String, int)&#xa;+ getPriceCode(): int&#xa;+ setPriceCode(int): void&#xa;+ getTitle(): String" style="text;strokeColor=none;fillColor=none;align=left;verticalAlign=top;spacingLeft=4;spacingRight=4;overflow=hidden;rotatable=0;points=[[0,0.5],[1,0.5]];portConstraint=eastwest;" parent="OQfz_WFB2d55QO-OLQLl-16" vertex="1">
          <mxGeometry y="128" width="200" height="70" as="geometry" />
        </mxCell>
        <mxCell id="OQfz_WFB2d55QO-OLQLl-20" value="-_rentals" style="endArrow=open;endFill=1;endSize=12;html=1;rounded=0;" parent="1" edge="1">
          <mxGeometry x="0.5" y="10" width="160" relative="1" as="geometry">
            <mxPoint x="900" y="1020" as="sourcePoint" />
            <mxPoint x="1020" y="1020" as="targetPoint" />
            <mxPoint as="offset" />
          </mxGeometry>
        </mxCell>
        <mxCell id="OQfz_WFB2d55QO-OLQLl-21" value="" style="rounded=0;whiteSpace=wrap;html=1;fontColor=#000000;fillColor=none;strokeColor=#FF0000;strokeWidth=2;" parent="1" vertex="1">
          <mxGeometry x="676" y="1057" width="228" height="58" as="geometry" />
        </mxCell>
        <mxCell id="UCq6OeMAjsQIkMiQeq0x-2" value="" style="rounded=0;whiteSpace=wrap;html=1;fontColor=#000000;fillColor=none;strokeColor=#FF0000;strokeWidth=2;" parent="1" vertex="1">
          <mxGeometry x="1017" y="1048" width="197" height="30" as="geometry" />
        </mxCell>
        <mxCell id="UCq6OeMAjsQIkMiQeq0x-3" value="Customer" style="swimlane;fontStyle=1;align=center;verticalAlign=top;childLayout=stackLayout;horizontal=1;startSize=26;horizontalStack=0;resizeParent=1;resizeParentMax=0;resizeLast=0;collapsible=1;marginBottom=0;" parent="1" vertex="1">
          <mxGeometry x="200" y="1400" width="220" height="200" as="geometry" />
        </mxCell>
        <mxCell id="UCq6OeMAjsQIkMiQeq0x-4" value="- _name: String" style="text;strokeColor=none;fillColor=none;align=left;verticalAlign=top;spacingLeft=4;spacingRight=4;overflow=hidden;rotatable=0;points=[[0,0.5],[1,0.5]];portConstraint=eastwest;" parent="UCq6OeMAjsQIkMiQeq0x-3" vertex="1">
          <mxGeometry y="26" width="220" height="26" as="geometry" />
        </mxCell>
        <mxCell id="UCq6OeMAjsQIkMiQeq0x-5" value="" style="line;strokeWidth=1;fillColor=none;align=left;verticalAlign=middle;spacingTop=-1;spacingLeft=3;spacingRight=3;rotatable=0;labelPosition=right;points=[];portConstraint=eastwest;strokeColor=inherit;" parent="UCq6OeMAjsQIkMiQeq0x-3" vertex="1">
          <mxGeometry y="52" width="220" height="8" as="geometry" />
        </mxCell>
        <mxCell id="UCq6OeMAjsQIkMiQeq0x-6" value="+ Customer(String)&#xa;+ addRental(Rental): void&#xa;+ getName(): String&#xa;+ statement(): String&#xa;+ setRentals(Vector&lt;Rental&gt;): void&#xa;+ getRentals(): Vector&lt;Rental&gt;&#xa;+ getTotalCharge(): double&#xa;+ getTotalFrequentRenterPoints(): int&#xa;+ htmlStatement(): String" style="text;strokeColor=none;fillColor=none;align=left;verticalAlign=top;spacingLeft=4;spacingRight=4;overflow=hidden;rotatable=0;points=[[0,0.5],[1,0.5]];portConstraint=eastwest;fontColor=#000000;" parent="UCq6OeMAjsQIkMiQeq0x-3" vertex="1">
          <mxGeometry y="60" width="220" height="140" as="geometry" />
        </mxCell>
        <mxCell id="UCq6OeMAjsQIkMiQeq0x-7" value="Rental" style="swimlane;fontStyle=1;align=center;verticalAlign=top;childLayout=stackLayout;horizontal=1;startSize=26;horizontalStack=0;resizeParent=1;resizeParentMax=0;resizeLast=0;collapsible=1;marginBottom=0;" parent="1" vertex="1">
          <mxGeometry x="540" y="1420" width="190" height="140" as="geometry" />
        </mxCell>
        <mxCell id="UCq6OeMAjsQIkMiQeq0x-8" value="- _daysRented: int" style="text;strokeColor=none;fillColor=none;align=left;verticalAlign=top;spacingLeft=4;spacingRight=4;overflow=hidden;rotatable=0;points=[[0,0.5],[1,0.5]];portConstraint=eastwest;" parent="UCq6OeMAjsQIkMiQeq0x-7" vertex="1">
          <mxGeometry y="26" width="190" height="26" as="geometry" />
        </mxCell>
        <mxCell id="UCq6OeMAjsQIkMiQeq0x-9" value="" style="line;strokeWidth=1;fillColor=none;align=left;verticalAlign=middle;spacingTop=-1;spacingLeft=3;spacingRight=3;rotatable=0;labelPosition=right;points=[];portConstraint=eastwest;strokeColor=inherit;" parent="UCq6OeMAjsQIkMiQeq0x-7" vertex="1">
          <mxGeometry y="52" width="190" height="8" as="geometry" />
        </mxCell>
        <mxCell id="UCq6OeMAjsQIkMiQeq0x-10" value="+ Rental(Movie, int)&#xa;+ getDaysRented(): int&#xa;+ getMovie(): Movie&#xa;+ getCharge(): double&#xa;+ getFrequentRenterPoints(): int" style="text;strokeColor=none;fillColor=none;align=left;verticalAlign=top;spacingLeft=4;spacingRight=4;overflow=hidden;rotatable=0;points=[[0,0.5],[1,0.5]];portConstraint=eastwest;" parent="UCq6OeMAjsQIkMiQeq0x-7" vertex="1">
          <mxGeometry y="60" width="190" height="80" as="geometry" />
        </mxCell>
        <mxCell id="UCq6OeMAjsQIkMiQeq0x-11" value="-_movie" style="endArrow=open;endFill=1;endSize=12;html=1;rounded=0;entryX=0.5;entryY=0;entryDx=0;entryDy=0;" parent="UCq6OeMAjsQIkMiQeq0x-7" target="UCq6OeMAjsQIkMiQeq0x-12" edge="1">
          <mxGeometry x="0.5062" y="30" width="160" relative="1" as="geometry">
            <mxPoint x="80" y="140" as="sourcePoint" />
            <mxPoint x="240" y="119" as="targetPoint" />
            <mxPoint as="offset" />
          </mxGeometry>
        </mxCell>
        <mxCell id="UCq6OeMAjsQIkMiQeq0x-12" value="Movie" style="swimlane;fontStyle=1;align=center;verticalAlign=top;childLayout=stackLayout;horizontal=1;startSize=26;horizontalStack=0;resizeParent=1;resizeParentMax=0;resizeLast=0;collapsible=1;marginBottom=0;" parent="1" vertex="1">
          <mxGeometry x="520" y="1630" width="200" height="220" as="geometry" />
        </mxCell>
        <mxCell id="UCq6OeMAjsQIkMiQeq0x-13" value="+ Rental(Movie, int)&#xa;+ REGULAR: int = 0 {readOnly}&#xa;+ NEW_RELEASE: int = 1 {readOnly}&#xa;+ CHILDREN: int = 2 {readOnly}&#xa;- _title: String&#xa;- _priceCode: int" style="text;strokeColor=none;fillColor=none;align=left;verticalAlign=top;spacingLeft=4;spacingRight=4;overflow=hidden;rotatable=0;points=[[0,0.5],[1,0.5]];portConstraint=eastwest;" parent="UCq6OeMAjsQIkMiQeq0x-12" vertex="1">
          <mxGeometry y="26" width="200" height="94" as="geometry" />
        </mxCell>
        <mxCell id="UCq6OeMAjsQIkMiQeq0x-14" value="" style="line;strokeWidth=1;fillColor=none;align=left;verticalAlign=middle;spacingTop=-1;spacingLeft=3;spacingRight=3;rotatable=0;labelPosition=right;points=[];portConstraint=eastwest;strokeColor=inherit;" parent="UCq6OeMAjsQIkMiQeq0x-12" vertex="1">
          <mxGeometry y="120" width="200" height="8" as="geometry" />
        </mxCell>
        <mxCell id="UCq6OeMAjsQIkMiQeq0x-15" value="+ Movie(String, int)&#xa;+ getPriceCode(): int&#xa;+ setPriceCode(int): void&#xa;+ getTitle(): String&#xa;+ getCharge(int): double&#xa;+ getFrequentRenterPoints(int): int" style="text;strokeColor=none;fillColor=none;align=left;verticalAlign=top;spacingLeft=4;spacingRight=4;overflow=hidden;rotatable=0;points=[[0,0.5],[1,0.5]];portConstraint=eastwest;" parent="UCq6OeMAjsQIkMiQeq0x-12" vertex="1">
          <mxGeometry y="128" width="200" height="92" as="geometry" />
        </mxCell>
        <mxCell id="UCq6OeMAjsQIkMiQeq0x-16" value="-_rentals" style="endArrow=open;endFill=1;endSize=12;html=1;rounded=0;" parent="1" edge="1">
          <mxGeometry x="0.5" y="10" width="160" relative="1" as="geometry">
            <mxPoint x="420" y="1500" as="sourcePoint" />
            <mxPoint x="540" y="1500" as="targetPoint" />
            <mxPoint as="offset" />
          </mxGeometry>
        </mxCell>
        <mxCell id="UCq6OeMAjsQIkMiQeq0x-19" value="" style="rounded=0;whiteSpace=wrap;html=1;fontColor=#000000;fillColor=none;strokeColor=#FF0000;strokeWidth=2;" parent="1" vertex="1">
          <mxGeometry x="518" y="1820" width="206" height="34" as="geometry" />
        </mxCell>
        <mxCell id="UCq6OeMAjsQIkMiQeq0x-24" value="Price" style="swimlane;fontStyle=1;childLayout=stackLayout;horizontal=1;startSize=26;fillColor=none;horizontalStack=0;resizeParent=1;resizeParentMax=0;resizeLast=0;collapsible=1;marginBottom=0;strokeColor=#000000;strokeWidth=1;" parent="1" vertex="1">
          <mxGeometry x="810" y="1560" width="200" height="104" as="geometry" />
        </mxCell>
        <mxCell id="UCq6OeMAjsQIkMiQeq0x-25" value="+ getPriceCode(): int" style="text;strokeColor=none;fillColor=none;align=left;verticalAlign=top;spacingLeft=4;spacingRight=4;overflow=hidden;rotatable=0;points=[[0,0.5],[1,0.5]];portConstraint=eastwest;" parent="UCq6OeMAjsQIkMiQeq0x-24" vertex="1">
          <mxGeometry y="26" width="200" height="26" as="geometry" />
        </mxCell>
        <mxCell id="UCq6OeMAjsQIkMiQeq0x-26" value="+ getCharge(int): double" style="text;strokeColor=none;fillColor=none;align=left;verticalAlign=top;spacingLeft=4;spacingRight=4;overflow=hidden;rotatable=0;points=[[0,0.5],[1,0.5]];portConstraint=eastwest;" parent="UCq6OeMAjsQIkMiQeq0x-24" vertex="1">
          <mxGeometry y="52" width="200" height="26" as="geometry" />
        </mxCell>
        <mxCell id="UCq6OeMAjsQIkMiQeq0x-27" value="+ getFrequentRenterPoints(int): int" style="text;strokeColor=none;fillColor=none;align=left;verticalAlign=top;spacingLeft=4;spacingRight=4;overflow=hidden;rotatable=0;points=[[0,0.5],[1,0.5]];portConstraint=eastwest;" parent="UCq6OeMAjsQIkMiQeq0x-24" vertex="1">
          <mxGeometry y="78" width="200" height="26" as="geometry" />
        </mxCell>
        <mxCell id="UCq6OeMAjsQIkMiQeq0x-28" value="ChildrenPrice" style="swimlane;fontStyle=1;childLayout=stackLayout;horizontal=1;startSize=26;fillColor=none;horizontalStack=0;resizeParent=1;resizeParentMax=0;resizeLast=0;collapsible=1;marginBottom=0;strokeColor=#000000;strokeWidth=1;" parent="1" vertex="1">
          <mxGeometry x="1080" y="1438" width="200" height="104" as="geometry" />
        </mxCell>
        <mxCell id="UCq6OeMAjsQIkMiQeq0x-29" value="+ getPriceCode(): int" style="text;strokeColor=none;fillColor=none;align=left;verticalAlign=top;spacingLeft=4;spacingRight=4;overflow=hidden;rotatable=0;points=[[0,0.5],[1,0.5]];portConstraint=eastwest;" parent="UCq6OeMAjsQIkMiQeq0x-28" vertex="1">
          <mxGeometry y="26" width="200" height="26" as="geometry" />
        </mxCell>
        <mxCell id="UCq6OeMAjsQIkMiQeq0x-30" value="+ getCharge(int): double" style="text;strokeColor=none;fillColor=none;align=left;verticalAlign=top;spacingLeft=4;spacingRight=4;overflow=hidden;rotatable=0;points=[[0,0.5],[1,0.5]];portConstraint=eastwest;" parent="UCq6OeMAjsQIkMiQeq0x-28" vertex="1">
          <mxGeometry y="52" width="200" height="26" as="geometry" />
        </mxCell>
        <mxCell id="UCq6OeMAjsQIkMiQeq0x-31" value="+ getFrequentRenterPoints(int): int" style="text;strokeColor=none;fillColor=none;align=left;verticalAlign=top;spacingLeft=4;spacingRight=4;overflow=hidden;rotatable=0;points=[[0,0.5],[1,0.5]];portConstraint=eastwest;" parent="UCq6OeMAjsQIkMiQeq0x-28" vertex="1">
          <mxGeometry y="78" width="200" height="26" as="geometry" />
        </mxCell>
        <mxCell id="UCq6OeMAjsQIkMiQeq0x-32" value="RegularPrice" style="swimlane;fontStyle=0;childLayout=stackLayout;horizontal=1;startSize=26;fillColor=none;horizontalStack=0;resizeParent=1;resizeParentMax=0;resizeLast=0;collapsible=1;marginBottom=0;strokeColor=#000000;strokeWidth=1;" parent="1" vertex="1">
          <mxGeometry x="1080" y="1560" width="200" height="104" as="geometry" />
        </mxCell>
        <mxCell id="UCq6OeMAjsQIkMiQeq0x-33" value="+ getPriceCode(): int" style="text;strokeColor=none;fillColor=none;align=left;verticalAlign=top;spacingLeft=4;spacingRight=4;overflow=hidden;rotatable=0;points=[[0,0.5],[1,0.5]];portConstraint=eastwest;" parent="UCq6OeMAjsQIkMiQeq0x-32" vertex="1">
          <mxGeometry y="26" width="200" height="26" as="geometry" />
        </mxCell>
        <mxCell id="UCq6OeMAjsQIkMiQeq0x-34" value="+ getCharge(int): double" style="text;strokeColor=none;fillColor=none;align=left;verticalAlign=top;spacingLeft=4;spacingRight=4;overflow=hidden;rotatable=0;points=[[0,0.5],[1,0.5]];portConstraint=eastwest;" parent="UCq6OeMAjsQIkMiQeq0x-32" vertex="1">
          <mxGeometry y="52" width="200" height="26" as="geometry" />
        </mxCell>
        <mxCell id="UCq6OeMAjsQIkMiQeq0x-35" value="+ getFrequentRenterPoints(int): int" style="text;strokeColor=none;fillColor=none;align=left;verticalAlign=top;spacingLeft=4;spacingRight=4;overflow=hidden;rotatable=0;points=[[0,0.5],[1,0.5]];portConstraint=eastwest;" parent="UCq6OeMAjsQIkMiQeq0x-32" vertex="1">
          <mxGeometry y="78" width="200" height="26" as="geometry" />
        </mxCell>
        <mxCell id="UCq6OeMAjsQIkMiQeq0x-36" value="NewReleasePrice" style="swimlane;fontStyle=1;childLayout=stackLayout;horizontal=1;startSize=26;fillColor=none;horizontalStack=0;resizeParent=1;resizeParentMax=0;resizeLast=0;collapsible=1;marginBottom=0;strokeColor=#000000;strokeWidth=1;" parent="1" vertex="1">
          <mxGeometry x="1080" y="1680" width="200" height="104" as="geometry" />
        </mxCell>
        <mxCell id="UCq6OeMAjsQIkMiQeq0x-37" value="+ getPriceCode(): int" style="text;strokeColor=none;fillColor=none;align=left;verticalAlign=top;spacingLeft=4;spacingRight=4;overflow=hidden;rotatable=0;points=[[0,0.5],[1,0.5]];portConstraint=eastwest;" parent="UCq6OeMAjsQIkMiQeq0x-36" vertex="1">
          <mxGeometry y="26" width="200" height="26" as="geometry" />
        </mxCell>
        <mxCell id="UCq6OeMAjsQIkMiQeq0x-38" value="+ getCharge(int): double" style="text;strokeColor=none;fillColor=none;align=left;verticalAlign=top;spacingLeft=4;spacingRight=4;overflow=hidden;rotatable=0;points=[[0,0.5],[1,0.5]];portConstraint=eastwest;" parent="UCq6OeMAjsQIkMiQeq0x-36" vertex="1">
          <mxGeometry y="52" width="200" height="26" as="geometry" />
        </mxCell>
        <mxCell id="UCq6OeMAjsQIkMiQeq0x-39" value="+ getFrequentRenterPoints(int): int" style="text;strokeColor=none;fillColor=none;align=left;verticalAlign=top;spacingLeft=4;spacingRight=4;overflow=hidden;rotatable=0;points=[[0,0.5],[1,0.5]];portConstraint=eastwest;" parent="UCq6OeMAjsQIkMiQeq0x-36" vertex="1">
          <mxGeometry y="78" width="200" height="26" as="geometry" />
        </mxCell>
        <mxCell id="UCq6OeMAjsQIkMiQeq0x-40" value="" style="endArrow=block;endSize=16;endFill=0;html=1;rounded=0;entryX=0.5;entryY=0;entryDx=0;entryDy=0;exitX=0;exitY=0.5;exitDx=0;exitDy=0;edgeStyle=orthogonalEdgeStyle;curved=1;" parent="1" source="UCq6OeMAjsQIkMiQeq0x-30" target="UCq6OeMAjsQIkMiQeq0x-24" edge="1">
          <mxGeometry x="0.375" y="90" width="160" relative="1" as="geometry">
            <mxPoint x="920" y="1489.5" as="sourcePoint" />
            <mxPoint x="1080" y="1489.5" as="targetPoint" />
            <mxPoint as="offset" />
          </mxGeometry>
        </mxCell>
        <mxCell id="UCq6OeMAjsQIkMiQeq0x-42" value="" style="endArrow=block;endSize=16;endFill=0;html=1;rounded=0;curved=1;exitX=0;exitY=0.5;exitDx=0;exitDy=0;entryX=1;entryY=0.5;entryDx=0;entryDy=0;" parent="1" source="UCq6OeMAjsQIkMiQeq0x-34" target="UCq6OeMAjsQIkMiQeq0x-26" edge="1">
          <mxGeometry x="0.1429" y="-65" width="160" relative="1" as="geometry">
            <mxPoint x="820" y="1800" as="sourcePoint" />
            <mxPoint x="980" y="1800" as="targetPoint" />
            <mxPoint as="offset" />
          </mxGeometry>
        </mxCell>
        <mxCell id="UCq6OeMAjsQIkMiQeq0x-43" value="" style="endArrow=block;endSize=16;endFill=0;html=1;rounded=0;exitX=0;exitY=0.5;exitDx=0;exitDy=0;entryX=0.55;entryY=0.997;entryDx=0;entryDy=0;entryPerimeter=0;edgeStyle=orthogonalEdgeStyle;curved=1;" parent="1" target="UCq6OeMAjsQIkMiQeq0x-27" edge="1">
          <mxGeometry x="0.1429" y="-65" width="160" relative="1" as="geometry">
            <mxPoint x="1080" y="1739.5" as="sourcePoint" />
            <mxPoint x="1010" y="1739.5" as="targetPoint" />
            <mxPoint as="offset" />
          </mxGeometry>
        </mxCell>
        <mxCell id="z5FjlhwpFLuzclh5f7W9-3" value="-_price" style="endArrow=open;endFill=1;endSize=12;html=1;rounded=0;exitX=1.006;exitY=0.753;exitDx=0;exitDy=0;exitPerimeter=0;edgeStyle=elbowEdgeStyle;" parent="1" source="UCq6OeMAjsQIkMiQeq0x-13" edge="1">
          <mxGeometry x="0.591" y="10" width="160" relative="1" as="geometry">
            <mxPoint x="690" y="1620" as="sourcePoint" />
            <mxPoint x="810" y="1620" as="targetPoint" />
            <mxPoint as="offset" />
          </mxGeometry>
        </mxCell>
        <mxCell id="z5FjlhwpFLuzclh5f7W9-4" value="" style="rounded=0;whiteSpace=wrap;html=1;fontColor=#000000;fillColor=none;strokeColor=#FF0000;strokeWidth=2;" parent="1" vertex="1">
          <mxGeometry x="805" y="1616" width="209" height="54" as="geometry" />
        </mxCell>
        <mxCell id="q6Gfqv-jAPHt8qrF0zTz-1" value="Customer" style="swimlane;fontStyle=1;align=center;verticalAlign=top;childLayout=stackLayout;horizontal=1;startSize=26;horizontalStack=0;resizeParent=1;resizeParentMax=0;resizeLast=0;collapsible=1;marginBottom=0;" parent="1" vertex="1">
          <mxGeometry x="340" y="1960" width="220" height="200" as="geometry" />
        </mxCell>
        <mxCell id="q6Gfqv-jAPHt8qrF0zTz-2" value="- _name: String" style="text;strokeColor=none;fillColor=none;align=left;verticalAlign=top;spacingLeft=4;spacingRight=4;overflow=hidden;rotatable=0;points=[[0,0.5],[1,0.5]];portConstraint=eastwest;" parent="q6Gfqv-jAPHt8qrF0zTz-1" vertex="1">
          <mxGeometry y="26" width="220" height="26" as="geometry" />
        </mxCell>
        <mxCell id="q6Gfqv-jAPHt8qrF0zTz-3" value="" style="line;strokeWidth=1;fillColor=none;align=left;verticalAlign=middle;spacingTop=-1;spacingLeft=3;spacingRight=3;rotatable=0;labelPosition=right;points=[];portConstraint=eastwest;strokeColor=inherit;" parent="q6Gfqv-jAPHt8qrF0zTz-1" vertex="1">
          <mxGeometry y="52" width="220" height="8" as="geometry" />
        </mxCell>
        <mxCell id="q6Gfqv-jAPHt8qrF0zTz-4" value="+ Customer(String)&#xa;+ addRental(Rental): void&#xa;+ getName(): String&#xa;+ statement(): String&#xa;+ setRentals(Vector&lt;Rental&gt;): void&#xa;+ getRentals(): Vector&lt;Rental&gt;&#xa;+ getTotalCharge(): double&#xa;+ getTotalFrequentRenterPoints(): int&#xa;+ htmlStatement(): String" style="text;strokeColor=none;fillColor=none;align=left;verticalAlign=top;spacingLeft=4;spacingRight=4;overflow=hidden;rotatable=0;points=[[0,0.5],[1,0.5]];portConstraint=eastwest;fontColor=#000000;" parent="q6Gfqv-jAPHt8qrF0zTz-1" vertex="1">
          <mxGeometry y="60" width="220" height="140" as="geometry" />
        </mxCell>
        <mxCell id="q6Gfqv-jAPHt8qrF0zTz-5" value="Rental" style="swimlane;fontStyle=1;align=center;verticalAlign=top;childLayout=stackLayout;horizontal=1;startSize=26;horizontalStack=0;resizeParent=1;resizeParentMax=0;resizeLast=0;collapsible=1;marginBottom=0;" parent="1" vertex="1">
          <mxGeometry x="680" y="1980" width="190" height="140" as="geometry" />
        </mxCell>
        <mxCell id="q6Gfqv-jAPHt8qrF0zTz-6" value="- _daysRented: int" style="text;strokeColor=none;fillColor=none;align=left;verticalAlign=top;spacingLeft=4;spacingRight=4;overflow=hidden;rotatable=0;points=[[0,0.5],[1,0.5]];portConstraint=eastwest;" parent="q6Gfqv-jAPHt8qrF0zTz-5" vertex="1">
          <mxGeometry y="26" width="190" height="26" as="geometry" />
        </mxCell>
        <mxCell id="q6Gfqv-jAPHt8qrF0zTz-7" value="" style="line;strokeWidth=1;fillColor=none;align=left;verticalAlign=middle;spacingTop=-1;spacingLeft=3;spacingRight=3;rotatable=0;labelPosition=right;points=[];portConstraint=eastwest;strokeColor=inherit;" parent="q6Gfqv-jAPHt8qrF0zTz-5" vertex="1">
          <mxGeometry y="52" width="190" height="8" as="geometry" />
        </mxCell>
        <mxCell id="q6Gfqv-jAPHt8qrF0zTz-8" value="+ Rental(Movie, int)&#xa;+ getDaysRented(): int&#xa;+ getMovie(): Movie&#xa;+ getCharge(): double&#xa;+ getFrequentRenterPoints(): int" style="text;strokeColor=none;fillColor=none;align=left;verticalAlign=top;spacingLeft=4;spacingRight=4;overflow=hidden;rotatable=0;points=[[0,0.5],[1,0.5]];portConstraint=eastwest;" parent="q6Gfqv-jAPHt8qrF0zTz-5" vertex="1">
          <mxGeometry y="60" width="190" height="80" as="geometry" />
        </mxCell>
        <mxCell id="q6Gfqv-jAPHt8qrF0zTz-9" value="-_movie" style="endArrow=open;endFill=1;endSize=12;html=1;rounded=0;entryX=0.5;entryY=0;entryDx=0;entryDy=0;" parent="q6Gfqv-jAPHt8qrF0zTz-5" target="q6Gfqv-jAPHt8qrF0zTz-10" edge="1">
          <mxGeometry x="0.5062" y="30" width="160" relative="1" as="geometry">
            <mxPoint x="80" y="140" as="sourcePoint" />
            <mxPoint x="240" y="119" as="targetPoint" />
            <mxPoint as="offset" />
          </mxGeometry>
        </mxCell>
        <mxCell id="q6Gfqv-jAPHt8qrF0zTz-10" value="Movie" style="swimlane;fontStyle=1;align=center;verticalAlign=top;childLayout=stackLayout;horizontal=1;startSize=26;horizontalStack=0;resizeParent=1;resizeParentMax=0;resizeLast=0;collapsible=1;marginBottom=0;" parent="1" vertex="1">
          <mxGeometry x="660" y="2190" width="200" height="220" as="geometry" />
        </mxCell>
        <mxCell id="q6Gfqv-jAPHt8qrF0zTz-11" value="+ Rental(Movie, int)&#xa;+ REGULAR: int = 0 {readOnly}&#xa;+ NEW_RELEASE: int = 1 {readOnly}&#xa;+ CHILDREN: int = 2 {readOnly}&#xa;- _title: String&#xa;- _priceCode: int" style="text;strokeColor=none;fillColor=none;align=left;verticalAlign=top;spacingLeft=4;spacingRight=4;overflow=hidden;rotatable=0;points=[[0,0.5],[1,0.5]];portConstraint=eastwest;" parent="q6Gfqv-jAPHt8qrF0zTz-10" vertex="1">
          <mxGeometry y="26" width="200" height="94" as="geometry" />
        </mxCell>
        <mxCell id="q6Gfqv-jAPHt8qrF0zTz-12" value="" style="line;strokeWidth=1;fillColor=none;align=left;verticalAlign=middle;spacingTop=-1;spacingLeft=3;spacingRight=3;rotatable=0;labelPosition=right;points=[];portConstraint=eastwest;strokeColor=inherit;" parent="q6Gfqv-jAPHt8qrF0zTz-10" vertex="1">
          <mxGeometry y="120" width="200" height="8" as="geometry" />
        </mxCell>
        <mxCell id="q6Gfqv-jAPHt8qrF0zTz-13" value="+ Movie(String, int)&#xa;+ getPriceCode(): int&#xa;+ setPriceCode(int): void&#xa;+ getTitle(): String&#xa;+ getCharge(int): double&#xa;+ getFrequentRenterPoints(int): int" style="text;strokeColor=none;fillColor=none;align=left;verticalAlign=top;spacingLeft=4;spacingRight=4;overflow=hidden;rotatable=0;points=[[0,0.5],[1,0.5]];portConstraint=eastwest;" parent="q6Gfqv-jAPHt8qrF0zTz-10" vertex="1">
          <mxGeometry y="128" width="200" height="92" as="geometry" />
        </mxCell>
        <mxCell id="q6Gfqv-jAPHt8qrF0zTz-14" value="-_rentals" style="endArrow=open;endFill=1;endSize=12;html=1;rounded=0;" parent="1" edge="1">
          <mxGeometry x="0.5" y="10" width="160" relative="1" as="geometry">
            <mxPoint x="560" y="2060" as="sourcePoint" />
            <mxPoint x="680" y="2060" as="targetPoint" />
            <mxPoint as="offset" />
          </mxGeometry>
        </mxCell>
        <mxCell id="q6Gfqv-jAPHt8qrF0zTz-15" value="" style="rounded=0;whiteSpace=wrap;html=1;fontColor=#000000;fillColor=none;strokeColor=#FF0000;strokeWidth=2;" parent="1" vertex="1">
          <mxGeometry x="658" y="2380" width="206" height="34" as="geometry" />
        </mxCell>
        <mxCell id="q6Gfqv-jAPHt8qrF0zTz-16" value="Price" style="swimlane;fontStyle=1;childLayout=stackLayout;horizontal=1;startSize=26;fillColor=none;horizontalStack=0;resizeParent=1;resizeParentMax=0;resizeLast=0;collapsible=1;marginBottom=0;strokeColor=#000000;strokeWidth=1;" parent="1" vertex="1">
          <mxGeometry x="950" y="2120" width="200" height="104" as="geometry" />
        </mxCell>
        <mxCell id="q6Gfqv-jAPHt8qrF0zTz-17" value="+ getPriceCode(): int" style="text;strokeColor=none;fillColor=none;align=left;verticalAlign=top;spacingLeft=4;spacingRight=4;overflow=hidden;rotatable=0;points=[[0,0.5],[1,0.5]];portConstraint=eastwest;" parent="q6Gfqv-jAPHt8qrF0zTz-16" vertex="1">
          <mxGeometry y="26" width="200" height="26" as="geometry" />
        </mxCell>
        <mxCell id="q6Gfqv-jAPHt8qrF0zTz-18" value="+ getCharge(int): double" style="text;strokeColor=none;fillColor=none;align=left;verticalAlign=top;spacingLeft=4;spacingRight=4;overflow=hidden;rotatable=0;points=[[0,0.5],[1,0.5]];portConstraint=eastwest;" parent="q6Gfqv-jAPHt8qrF0zTz-16" vertex="1">
          <mxGeometry y="52" width="200" height="26" as="geometry" />
        </mxCell>
        <mxCell id="q6Gfqv-jAPHt8qrF0zTz-19" value="+ getFrequentRenterPoints(int): int" style="text;strokeColor=none;fillColor=none;align=left;verticalAlign=top;spacingLeft=4;spacingRight=4;overflow=hidden;rotatable=0;points=[[0,0.5],[1,0.5]];portConstraint=eastwest;" parent="q6Gfqv-jAPHt8qrF0zTz-16" vertex="1">
          <mxGeometry y="78" width="200" height="26" as="geometry" />
        </mxCell>
        <mxCell id="q6Gfqv-jAPHt8qrF0zTz-20" value="ChildrenPrice" style="swimlane;fontStyle=1;childLayout=stackLayout;horizontal=1;startSize=26;fillColor=none;horizontalStack=0;resizeParent=1;resizeParentMax=0;resizeLast=0;collapsible=1;marginBottom=0;strokeColor=#000000;strokeWidth=1;" parent="1" vertex="1">
          <mxGeometry x="1220" y="1998" width="200" height="104" as="geometry" />
        </mxCell>
        <mxCell id="q6Gfqv-jAPHt8qrF0zTz-21" value="+ getPriceCode(): int" style="text;strokeColor=none;fillColor=none;align=left;verticalAlign=top;spacingLeft=4;spacingRight=4;overflow=hidden;rotatable=0;points=[[0,0.5],[1,0.5]];portConstraint=eastwest;" parent="q6Gfqv-jAPHt8qrF0zTz-20" vertex="1">
          <mxGeometry y="26" width="200" height="26" as="geometry" />
        </mxCell>
        <mxCell id="q6Gfqv-jAPHt8qrF0zTz-22" value="+ getCharge(int): double" style="text;strokeColor=none;fillColor=none;align=left;verticalAlign=top;spacingLeft=4;spacingRight=4;overflow=hidden;rotatable=0;points=[[0,0.5],[1,0.5]];portConstraint=eastwest;" parent="q6Gfqv-jAPHt8qrF0zTz-20" vertex="1">
          <mxGeometry y="52" width="200" height="26" as="geometry" />
        </mxCell>
        <mxCell id="q6Gfqv-jAPHt8qrF0zTz-23" value="+ getFrequentRenterPoints(int): int" style="text;strokeColor=none;fillColor=none;align=left;verticalAlign=top;spacingLeft=4;spacingRight=4;overflow=hidden;rotatable=0;points=[[0,0.5],[1,0.5]];portConstraint=eastwest;" parent="q6Gfqv-jAPHt8qrF0zTz-20" vertex="1">
          <mxGeometry y="78" width="200" height="26" as="geometry" />
        </mxCell>
        <mxCell id="q6Gfqv-jAPHt8qrF0zTz-24" value="RegularPrice" style="swimlane;fontStyle=0;childLayout=stackLayout;horizontal=1;startSize=26;fillColor=none;horizontalStack=0;resizeParent=1;resizeParentMax=0;resizeLast=0;collapsible=1;marginBottom=0;strokeColor=#000000;strokeWidth=1;" parent="1" vertex="1">
          <mxGeometry x="1220" y="2120" width="200" height="104" as="geometry" />
        </mxCell>
        <mxCell id="q6Gfqv-jAPHt8qrF0zTz-25" value="+ getPriceCode(): int" style="text;strokeColor=none;fillColor=none;align=left;verticalAlign=top;spacingLeft=4;spacingRight=4;overflow=hidden;rotatable=0;points=[[0,0.5],[1,0.5]];portConstraint=eastwest;" parent="q6Gfqv-jAPHt8qrF0zTz-24" vertex="1">
          <mxGeometry y="26" width="200" height="26" as="geometry" />
        </mxCell>
        <mxCell id="q6Gfqv-jAPHt8qrF0zTz-26" value="+ getCharge(int): double" style="text;strokeColor=none;fillColor=none;align=left;verticalAlign=top;spacingLeft=4;spacingRight=4;overflow=hidden;rotatable=0;points=[[0,0.5],[1,0.5]];portConstraint=eastwest;" parent="q6Gfqv-jAPHt8qrF0zTz-24" vertex="1">
          <mxGeometry y="52" width="200" height="26" as="geometry" />
        </mxCell>
        <mxCell id="q6Gfqv-jAPHt8qrF0zTz-27" value="+ getFrequentRenterPoints(int): int" style="text;strokeColor=none;fillColor=none;align=left;verticalAlign=top;spacingLeft=4;spacingRight=4;overflow=hidden;rotatable=0;points=[[0,0.5],[1,0.5]];portConstraint=eastwest;" parent="q6Gfqv-jAPHt8qrF0zTz-24" vertex="1">
          <mxGeometry y="78" width="200" height="26" as="geometry" />
        </mxCell>
        <mxCell id="q6Gfqv-jAPHt8qrF0zTz-28" value="NewReleasePrice" style="swimlane;fontStyle=1;childLayout=stackLayout;horizontal=1;startSize=26;fillColor=none;horizontalStack=0;resizeParent=1;resizeParentMax=0;resizeLast=0;collapsible=1;marginBottom=0;strokeColor=#000000;strokeWidth=1;" parent="1" vertex="1">
          <mxGeometry x="1220" y="2240" width="200" height="104" as="geometry" />
        </mxCell>
        <mxCell id="q6Gfqv-jAPHt8qrF0zTz-29" value="+ getPriceCode(): int" style="text;strokeColor=none;fillColor=none;align=left;verticalAlign=top;spacingLeft=4;spacingRight=4;overflow=hidden;rotatable=0;points=[[0,0.5],[1,0.5]];portConstraint=eastwest;" parent="q6Gfqv-jAPHt8qrF0zTz-28" vertex="1">
          <mxGeometry y="26" width="200" height="26" as="geometry" />
        </mxCell>
        <mxCell id="q6Gfqv-jAPHt8qrF0zTz-30" value="+ getCharge(int): double" style="text;strokeColor=none;fillColor=none;align=left;verticalAlign=top;spacingLeft=4;spacingRight=4;overflow=hidden;rotatable=0;points=[[0,0.5],[1,0.5]];portConstraint=eastwest;" parent="q6Gfqv-jAPHt8qrF0zTz-28" vertex="1">
          <mxGeometry y="52" width="200" height="26" as="geometry" />
        </mxCell>
        <mxCell id="q6Gfqv-jAPHt8qrF0zTz-31" value="+ getFrequentRenterPoints(int): int" style="text;strokeColor=none;fillColor=none;align=left;verticalAlign=top;spacingLeft=4;spacingRight=4;overflow=hidden;rotatable=0;points=[[0,0.5],[1,0.5]];portConstraint=eastwest;" parent="q6Gfqv-jAPHt8qrF0zTz-28" vertex="1">
          <mxGeometry y="78" width="200" height="26" as="geometry" />
        </mxCell>
        <mxCell id="q6Gfqv-jAPHt8qrF0zTz-32" value="" style="endArrow=block;endSize=16;endFill=0;html=1;rounded=0;entryX=0.5;entryY=0;entryDx=0;entryDy=0;exitX=0;exitY=0.5;exitDx=0;exitDy=0;edgeStyle=orthogonalEdgeStyle;curved=1;" parent="1" source="q6Gfqv-jAPHt8qrF0zTz-22" target="q6Gfqv-jAPHt8qrF0zTz-16" edge="1">
          <mxGeometry x="0.375" y="90" width="160" relative="1" as="geometry">
            <mxPoint x="1060" y="2049.5" as="sourcePoint" />
            <mxPoint x="1220" y="2049.5" as="targetPoint" />
            <mxPoint as="offset" />
          </mxGeometry>
        </mxCell>
        <mxCell id="q6Gfqv-jAPHt8qrF0zTz-33" value="" style="endArrow=block;endSize=16;endFill=0;html=1;rounded=0;curved=1;exitX=0;exitY=0.5;exitDx=0;exitDy=0;entryX=1;entryY=0.5;entryDx=0;entryDy=0;" parent="1" source="q6Gfqv-jAPHt8qrF0zTz-26" target="q6Gfqv-jAPHt8qrF0zTz-18" edge="1">
          <mxGeometry x="0.1429" y="-65" width="160" relative="1" as="geometry">
            <mxPoint x="960" y="2360" as="sourcePoint" />
            <mxPoint x="1120" y="2360" as="targetPoint" />
            <mxPoint as="offset" />
          </mxGeometry>
        </mxCell>
        <mxCell id="q6Gfqv-jAPHt8qrF0zTz-34" value="" style="endArrow=block;endSize=16;endFill=0;html=1;rounded=0;exitX=0;exitY=0.5;exitDx=0;exitDy=0;entryX=0.55;entryY=0.997;entryDx=0;entryDy=0;entryPerimeter=0;edgeStyle=orthogonalEdgeStyle;curved=1;" parent="1" target="q6Gfqv-jAPHt8qrF0zTz-19" edge="1">
          <mxGeometry x="0.1429" y="-65" width="160" relative="1" as="geometry">
            <mxPoint x="1220" y="2299.5" as="sourcePoint" />
            <mxPoint x="1150" y="2299.5" as="targetPoint" />
            <mxPoint as="offset" />
          </mxGeometry>
        </mxCell>
        <mxCell id="q6Gfqv-jAPHt8qrF0zTz-35" value="-_price" style="endArrow=open;endFill=1;endSize=12;html=1;rounded=0;exitX=1.006;exitY=0.753;exitDx=0;exitDy=0;exitPerimeter=0;edgeStyle=elbowEdgeStyle;" parent="1" source="q6Gfqv-jAPHt8qrF0zTz-11" edge="1">
          <mxGeometry x="0.591" y="10" width="160" relative="1" as="geometry">
            <mxPoint x="830" y="2180" as="sourcePoint" />
            <mxPoint x="950" y="2180" as="targetPoint" />
            <mxPoint as="offset" />
          </mxGeometry>
        </mxCell>
        <mxCell id="q6Gfqv-jAPHt8qrF0zTz-36" value="" style="rounded=0;whiteSpace=wrap;html=1;fontColor=#000000;fillColor=none;strokeColor=#FF0000;strokeWidth=2;" parent="1" vertex="1">
          <mxGeometry x="945" y="2176" width="209" height="54" as="geometry" />
        </mxCell>
        <mxCell id="q6Gfqv-jAPHt8qrF0zTz-37" value="" style="endArrow=open;endSize=12;dashed=1;html=1;rounded=0;exitX=0.5;exitY=1;exitDx=0;exitDy=0;exitPerimeter=0;" parent="1" source="q6Gfqv-jAPHt8qrF0zTz-4" edge="1">
          <mxGeometry x="0.375" y="60" width="160" relative="1" as="geometry">
            <mxPoint x="260" y="2310" as="sourcePoint" />
            <mxPoint x="450" y="2240" as="targetPoint" />
            <mxPoint as="offset" />
          </mxGeometry>
        </mxCell>
        <mxCell id="q6Gfqv-jAPHt8qrF0zTz-43" value="TextStatement" style="swimlane;fontStyle=1;childLayout=stackLayout;horizontal=1;startSize=26;fillColor=none;horizontalStack=0;resizeParent=1;resizeParentMax=0;resizeLast=0;collapsible=1;marginBottom=0;strokeColor=#000000;strokeWidth=1;" parent="1" vertex="1">
          <mxGeometry x="350" y="2240" width="200" height="104" as="geometry" />
        </mxCell>
        <mxCell id="q6Gfqv-jAPHt8qrF0zTz-44" value="+ headerString(Customer): String" style="text;strokeColor=none;fillColor=none;align=left;verticalAlign=top;spacingLeft=4;spacingRight=4;overflow=hidden;rotatable=0;points=[[0,0.5],[1,0.5]];portConstraint=eastwest;" parent="q6Gfqv-jAPHt8qrF0zTz-43" vertex="1">
          <mxGeometry y="26" width="200" height="26" as="geometry" />
        </mxCell>
        <mxCell id="q6Gfqv-jAPHt8qrF0zTz-45" value="+ eachRentalString(Rental): String" style="text;strokeColor=none;fillColor=none;align=left;verticalAlign=top;spacingLeft=4;spacingRight=4;overflow=hidden;rotatable=0;points=[[0,0.5],[1,0.5]];portConstraint=eastwest;" parent="q6Gfqv-jAPHt8qrF0zTz-43" vertex="1">
          <mxGeometry y="52" width="200" height="26" as="geometry" />
        </mxCell>
        <mxCell id="q6Gfqv-jAPHt8qrF0zTz-46" value="+ footerString(Customer): String" style="text;strokeColor=none;fillColor=none;align=left;verticalAlign=top;spacingLeft=4;spacingRight=4;overflow=hidden;rotatable=0;points=[[0,0.5],[1,0.5]];portConstraint=eastwest;" parent="q6Gfqv-jAPHt8qrF0zTz-43" vertex="1">
          <mxGeometry y="78" width="200" height="26" as="geometry" />
        </mxCell>
        <mxCell id="q6Gfqv-jAPHt8qrF0zTz-48" value="" style="endArrow=open;endSize=12;dashed=1;html=1;rounded=0;exitX=-0.002;exitY=0.401;exitDx=0;exitDy=0;exitPerimeter=0;edgeStyle=elbowEdgeStyle;" parent="1" source="q6Gfqv-jAPHt8qrF0zTz-4" edge="1">
          <mxGeometry x="0.375" y="60" width="160" relative="1" as="geometry">
            <mxPoint x="300" y="2050" as="sourcePoint" />
            <mxPoint x="260" y="2360" as="targetPoint" />
            <mxPoint as="offset" />
            <Array as="points">
              <mxPoint x="260" y="2100" />
              <mxPoint x="300" y="2100" />
            </Array>
          </mxGeometry>
        </mxCell>
        <mxCell id="q6Gfqv-jAPHt8qrF0zTz-49" value="HTMLStatement" style="swimlane;fontStyle=1;childLayout=stackLayout;horizontal=1;startSize=26;fillColor=none;horizontalStack=0;resizeParent=1;resizeParentMax=0;resizeLast=0;collapsible=1;marginBottom=0;strokeColor=#000000;strokeWidth=1;" parent="1" vertex="1">
          <mxGeometry x="160" y="2360" width="200" height="104" as="geometry" />
        </mxCell>
        <mxCell id="q6Gfqv-jAPHt8qrF0zTz-50" value="+ headerString(Customer): String" style="text;strokeColor=none;fillColor=none;align=left;verticalAlign=top;spacingLeft=4;spacingRight=4;overflow=hidden;rotatable=0;points=[[0,0.5],[1,0.5]];portConstraint=eastwest;" parent="q6Gfqv-jAPHt8qrF0zTz-49" vertex="1">
          <mxGeometry y="26" width="200" height="26" as="geometry" />
        </mxCell>
        <mxCell id="q6Gfqv-jAPHt8qrF0zTz-51" value="+ eachRentalString(Rental): String" style="text;strokeColor=none;fillColor=none;align=left;verticalAlign=top;spacingLeft=4;spacingRight=4;overflow=hidden;rotatable=0;points=[[0,0.5],[1,0.5]];portConstraint=eastwest;" parent="q6Gfqv-jAPHt8qrF0zTz-49" vertex="1">
          <mxGeometry y="52" width="200" height="26" as="geometry" />
        </mxCell>
        <mxCell id="q6Gfqv-jAPHt8qrF0zTz-52" value="+ footerString(Customer): String" style="text;strokeColor=none;fillColor=none;align=left;verticalAlign=top;spacingLeft=4;spacingRight=4;overflow=hidden;rotatable=0;points=[[0,0.5],[1,0.5]];portConstraint=eastwest;" parent="q6Gfqv-jAPHt8qrF0zTz-49" vertex="1">
          <mxGeometry y="78" width="200" height="26" as="geometry" />
        </mxCell>
        <mxCell id="q6Gfqv-jAPHt8qrF0zTz-53" value="" style="endArrow=block;endSize=16;endFill=0;html=1;rounded=0;curved=1;" parent="1" edge="1">
          <mxGeometry x="0.1429" y="-65" width="160" relative="1" as="geometry">
            <mxPoint x="449.58" y="2344" as="sourcePoint" />
            <mxPoint x="450" y="2480" as="targetPoint" />
            <mxPoint as="offset" />
          </mxGeometry>
        </mxCell>
        <mxCell id="q6Gfqv-jAPHt8qrF0zTz-54" value="" style="endArrow=block;endSize=16;endFill=0;html=1;rounded=0;edgeStyle=orthogonalEdgeStyle;entryX=0;entryY=0.5;entryDx=0;entryDy=0;" parent="1" target="q6Gfqv-jAPHt8qrF0zTz-57" edge="1">
          <mxGeometry x="0.1429" y="-65" width="160" relative="1" as="geometry">
            <mxPoint x="260" y="2464" as="sourcePoint" />
            <mxPoint x="330" y="2579" as="targetPoint" />
            <mxPoint as="offset" />
          </mxGeometry>
        </mxCell>
        <mxCell id="q6Gfqv-jAPHt8qrF0zTz-55" value="Statement" style="swimlane;fontStyle=1;childLayout=stackLayout;horizontal=1;startSize=26;fillColor=none;horizontalStack=0;resizeParent=1;resizeParentMax=0;resizeLast=0;collapsible=1;marginBottom=0;strokeColor=#000000;strokeWidth=1;" parent="1" vertex="1">
          <mxGeometry x="350" y="2480" width="200" height="130" as="geometry" />
        </mxCell>
        <mxCell id="q6Gfqv-jAPHt8qrF0zTz-56" value="+ value(Customer): String" style="text;strokeColor=none;fillColor=none;align=left;verticalAlign=top;spacingLeft=4;spacingRight=4;overflow=hidden;rotatable=0;points=[[0,0.5],[1,0.5]];portConstraint=eastwest;" parent="q6Gfqv-jAPHt8qrF0zTz-55" vertex="1">
          <mxGeometry y="26" width="200" height="26" as="geometry" />
        </mxCell>
        <mxCell id="q6Gfqv-jAPHt8qrF0zTz-57" value="# headerString(Customer): String" style="text;strokeColor=none;fillColor=none;align=left;verticalAlign=top;spacingLeft=4;spacingRight=4;overflow=hidden;rotatable=0;points=[[0,0.5],[1,0.5]];portConstraint=eastwest;" parent="q6Gfqv-jAPHt8qrF0zTz-55" vertex="1">
          <mxGeometry y="52" width="200" height="26" as="geometry" />
        </mxCell>
        <mxCell id="q6Gfqv-jAPHt8qrF0zTz-58" value="# eachRentalString(Rental): String" style="text;strokeColor=none;fillColor=none;align=left;verticalAlign=top;spacingLeft=4;spacingRight=4;overflow=hidden;rotatable=0;points=[[0,0.5],[1,0.5]];portConstraint=eastwest;" parent="q6Gfqv-jAPHt8qrF0zTz-55" vertex="1">
          <mxGeometry y="78" width="200" height="22" as="geometry" />
        </mxCell>
        <mxCell id="O-6mFqRPEfm9RQHit08T-4" value="# footerString(Customer): String" style="text;strokeColor=none;fillColor=none;align=left;verticalAlign=top;spacingLeft=4;spacingRight=4;overflow=hidden;rotatable=0;points=[[0,0.5],[1,0.5]];portConstraint=eastwest;" parent="q6Gfqv-jAPHt8qrF0zTz-55" vertex="1">
          <mxGeometry y="100" width="200" height="30" as="geometry" />
        </mxCell>
        <mxCell id="v5FyV09ZJ-9kAYsnZSxk-1" value="&lt;b style=&quot;font-size: 20px;&quot;&gt;Top Level Design&lt;/b&gt;&lt;br style=&quot;font-size: 20px;&quot;&gt;(Macro-architectural Design)" style="rounded=0;whiteSpace=wrap;html=1;fontSize=20;" parent="1" vertex="1">
          <mxGeometry x="320" y="2720" width="320" height="80" as="geometry" />
        </mxCell>
        <mxCell id="HxbU9chUwK0wRNYTGk-D-1" value="&lt;b&gt;Component Level Design&lt;br&gt;&lt;/b&gt;(Macro-architectural Design)" style="rounded=0;whiteSpace=wrap;html=1;fontSize=20;" parent="1" vertex="1">
          <mxGeometry x="320" y="2890" width="320" height="80" as="geometry" />
        </mxCell>
        <mxCell id="HxbU9chUwK0wRNYTGk-D-2" value="&lt;b&gt;Detailed Design&lt;/b&gt;" style="rounded=0;whiteSpace=wrap;html=1;fontSize=20;" parent="1" vertex="1">
          <mxGeometry x="320" y="3060" width="320" height="80" as="geometry" />
        </mxCell>
        <mxCell id="HxbU9chUwK0wRNYTGk-D-3" value="" style="shape=flexArrow;endArrow=classic;html=1;rounded=0;fontSize=20;" parent="1" edge="1">
          <mxGeometry width="50" height="50" relative="1" as="geometry">
            <mxPoint x="479.88" y="2810" as="sourcePoint" />
            <mxPoint x="479.88" y="2880" as="targetPoint" />
          </mxGeometry>
        </mxCell>
        <mxCell id="HxbU9chUwK0wRNYTGk-D-4" value="" style="shape=flexArrow;endArrow=classic;html=1;rounded=0;fontSize=20;" parent="1" edge="1">
          <mxGeometry width="50" height="50" relative="1" as="geometry">
            <mxPoint x="479.8800000000001" y="2980" as="sourcePoint" />
            <mxPoint x="479.8800000000001" y="3050" as="targetPoint" />
          </mxGeometry>
        </mxCell>
        <mxCell id="HxbU9chUwK0wRNYTGk-D-6" value="" style="shape=curlyBracket;whiteSpace=wrap;html=1;rounded=1;labelPosition=left;verticalLabelPosition=middle;align=right;verticalAlign=middle;fontSize=20;" parent="1" vertex="1">
          <mxGeometry x="290" y="2720" width="20" height="250" as="geometry" />
        </mxCell>
        <mxCell id="HxbU9chUwK0wRNYTGk-D-7" value="&lt;b&gt;Architectural&lt;br&gt;Design&lt;/b&gt;" style="text;html=1;strokeColor=none;fillColor=none;align=center;verticalAlign=middle;whiteSpace=wrap;rounded=0;fontSize=20;" parent="1" vertex="1">
          <mxGeometry x="160" y="2830" width="120" height="30" as="geometry" />
        </mxCell>
        <mxCell id="HxbU9chUwK0wRNYTGk-D-15" value="ScoreRecord" style="html=1;fontSize=22;strokeWidth=2;" parent="1" vertex="1">
          <mxGeometry x="1200" y="2840" width="160" height="80" as="geometry" />
        </mxCell>
        <mxCell id="HxbU9chUwK0wRNYTGk-D-19" style="rounded=0;orthogonalLoop=1;jettySize=auto;html=1;exitX=0.5;exitY=1;exitDx=0;exitDy=0;entryX=0.5;entryY=0;entryDx=0;entryDy=0;fontSize=22;startArrow=classic;startFill=1;strokeWidth=2;" parent="1" source="HxbU9chUwK0wRNYTGk-D-16" target="HxbU9chUwK0wRNYTGk-D-15" edge="1">
          <mxGeometry relative="1" as="geometry" />
        </mxCell>
        <mxCell id="HxbU9chUwK0wRNYTGk-D-16" value="DataSheet" style="html=1;fontSize=22;strokeWidth=2;" parent="1" vertex="1">
          <mxGeometry x="1000" y="2680" width="160" height="80" as="geometry" />
        </mxCell>
        <mxCell id="HxbU9chUwK0wRNYTGk-D-20" style="edgeStyle=none;rounded=0;orthogonalLoop=1;jettySize=auto;html=1;exitX=0.5;exitY=1;exitDx=0;exitDy=0;entryX=0.5;entryY=0;entryDx=0;entryDy=0;fontSize=22;startArrow=classic;startFill=1;strokeWidth=2;" parent="1" source="HxbU9chUwK0wRNYTGk-D-17" target="HxbU9chUwK0wRNYTGk-D-15" edge="1">
          <mxGeometry relative="1" as="geometry" />
        </mxCell>
        <mxCell id="HxbU9chUwK0wRNYTGk-D-17" value="PieGraph" style="html=1;fontSize=22;strokeWidth=2;" parent="1" vertex="1">
          <mxGeometry x="1200" y="2680" width="160" height="80" as="geometry" />
        </mxCell>
        <mxCell id="HxbU9chUwK0wRNYTGk-D-21" style="edgeStyle=none;rounded=0;orthogonalLoop=1;jettySize=auto;html=1;exitX=0.5;exitY=1;exitDx=0;exitDy=0;entryX=0.5;entryY=0;entryDx=0;entryDy=0;fontSize=22;startArrow=classic;startFill=1;strokeWidth=2;" parent="1" source="HxbU9chUwK0wRNYTGk-D-18" target="HxbU9chUwK0wRNYTGk-D-15" edge="1">
          <mxGeometry relative="1" as="geometry" />
        </mxCell>
        <mxCell id="HxbU9chUwK0wRNYTGk-D-18" value="BarGraph" style="html=1;fontSize=22;strokeWidth=2;" parent="1" vertex="1">
          <mxGeometry x="1400" y="2680" width="160" height="80" as="geometry" />
        </mxCell>
        <mxCell id="HxbU9chUwK0wRNYTGk-D-22" value="ConcreteSubject" style="swimlane;fontStyle=1;align=center;verticalAlign=top;childLayout=stackLayout;horizontal=1;startSize=26;horizontalStack=0;resizeParent=1;resizeParentMax=0;resizeLast=0;collapsible=1;marginBottom=0;" parent="1" vertex="1">
          <mxGeometry x="920" y="3160" width="120" height="100" as="geometry" />
        </mxCell>
        <mxCell id="HxbU9chUwK0wRNYTGk-D-23" value="GetState()&#xa;SetState()" style="text;strokeColor=none;fillColor=none;align=left;verticalAlign=top;spacingLeft=4;spacingRight=4;overflow=hidden;rotatable=0;points=[[0,0.5],[1,0.5]];portConstraint=eastwest;" parent="HxbU9chUwK0wRNYTGk-D-22" vertex="1">
          <mxGeometry y="26" width="120" height="34" as="geometry" />
        </mxCell>
        <mxCell id="HxbU9chUwK0wRNYTGk-D-24" value="" style="line;strokeWidth=1;fillColor=none;align=left;verticalAlign=middle;spacingTop=-1;spacingLeft=3;spacingRight=3;rotatable=0;labelPosition=right;points=[];portConstraint=eastwest;strokeColor=inherit;" parent="HxbU9chUwK0wRNYTGk-D-22" vertex="1">
          <mxGeometry y="60" width="120" height="8" as="geometry" />
        </mxCell>
        <mxCell id="HxbU9chUwK0wRNYTGk-D-25" value="subjectState" style="text;strokeColor=none;fillColor=none;align=left;verticalAlign=top;spacingLeft=4;spacingRight=4;overflow=hidden;rotatable=0;points=[[0,0.5],[1,0.5]];portConstraint=eastwest;" parent="HxbU9chUwK0wRNYTGk-D-22" vertex="1">
          <mxGeometry y="68" width="120" height="32" as="geometry" />
        </mxCell>
        <mxCell id="HxbU9chUwK0wRNYTGk-D-27" value="Subject" style="swimlane;fontStyle=3;childLayout=stackLayout;horizontal=1;startSize=26;fillColor=none;horizontalStack=0;resizeParent=1;resizeParentMax=0;resizeLast=0;collapsible=1;marginBottom=0;strokeColor=#000000;strokeWidth=1;" parent="1" vertex="1">
          <mxGeometry x="920" y="2980" width="120" height="104" as="geometry" />
        </mxCell>
        <mxCell id="HxbU9chUwK0wRNYTGk-D-28" value="Attatch(Observer)" style="text;strokeColor=none;fillColor=none;align=left;verticalAlign=top;spacingLeft=4;spacingRight=4;overflow=hidden;rotatable=0;points=[[0,0.5],[1,0.5]];portConstraint=eastwest;" parent="HxbU9chUwK0wRNYTGk-D-27" vertex="1">
          <mxGeometry y="26" width="120" height="26" as="geometry" />
        </mxCell>
        <mxCell id="HxbU9chUwK0wRNYTGk-D-29" value="Detatch(Observer)" style="text;strokeColor=none;fillColor=none;align=left;verticalAlign=top;spacingLeft=4;spacingRight=4;overflow=hidden;rotatable=0;points=[[0,0.5],[1,0.5]];portConstraint=eastwest;" parent="HxbU9chUwK0wRNYTGk-D-27" vertex="1">
          <mxGeometry y="52" width="120" height="26" as="geometry" />
        </mxCell>
        <mxCell id="HxbU9chUwK0wRNYTGk-D-30" value="Notify()" style="text;strokeColor=none;fillColor=none;align=left;verticalAlign=top;spacingLeft=4;spacingRight=4;overflow=hidden;rotatable=0;points=[[0,0.5],[1,0.5]];portConstraint=eastwest;" parent="HxbU9chUwK0wRNYTGk-D-27" vertex="1">
          <mxGeometry y="78" width="120" height="26" as="geometry" />
        </mxCell>
        <mxCell id="HxbU9chUwK0wRNYTGk-D-31" value="" style="endArrow=block;endSize=16;endFill=0;html=1;rounded=0;strokeWidth=1;fontSize=22;" parent="1" edge="1">
          <mxGeometry x="0.25" y="90" width="160" relative="1" as="geometry">
            <mxPoint x="980.25" y="3160" as="sourcePoint" />
            <mxPoint x="980" y="3110" as="targetPoint" />
            <mxPoint as="offset" />
          </mxGeometry>
        </mxCell>
        <mxCell id="HxbU9chUwK0wRNYTGk-D-32" value="" style="endArrow=none;html=1;rounded=0;strokeWidth=1;fontSize=22;exitX=0.5;exitY=1;exitDx=0;exitDy=0;exitPerimeter=0;" parent="1" source="HxbU9chUwK0wRNYTGk-D-30" edge="1">
          <mxGeometry width="50" height="50" relative="1" as="geometry">
            <mxPoint x="979" y="3070" as="sourcePoint" />
            <mxPoint x="980" y="3112" as="targetPoint" />
          </mxGeometry>
        </mxCell>
        <mxCell id="HxbU9chUwK0wRNYTGk-D-33" value="ConcreteSubject" style="swimlane;fontStyle=1;align=center;verticalAlign=top;childLayout=stackLayout;horizontal=1;startSize=26;horizontalStack=0;resizeParent=1;resizeParentMax=0;resizeLast=0;collapsible=1;marginBottom=0;" parent="1" vertex="1">
          <mxGeometry x="1220" y="3140" width="120" height="88" as="geometry" />
        </mxCell>
        <mxCell id="HxbU9chUwK0wRNYTGk-D-34" value="Update()" style="text;strokeColor=none;fillColor=none;align=left;verticalAlign=top;spacingLeft=4;spacingRight=4;overflow=hidden;rotatable=0;points=[[0,0.5],[1,0.5]];portConstraint=eastwest;" parent="HxbU9chUwK0wRNYTGk-D-33" vertex="1">
          <mxGeometry y="26" width="120" height="24" as="geometry" />
        </mxCell>
        <mxCell id="HxbU9chUwK0wRNYTGk-D-35" value="" style="line;strokeWidth=1;fillColor=none;align=left;verticalAlign=middle;spacingTop=-1;spacingLeft=3;spacingRight=3;rotatable=0;labelPosition=right;points=[];portConstraint=eastwest;strokeColor=inherit;" parent="HxbU9chUwK0wRNYTGk-D-33" vertex="1">
          <mxGeometry y="50" width="120" height="8" as="geometry" />
        </mxCell>
        <mxCell id="HxbU9chUwK0wRNYTGk-D-36" value="observerState" style="text;strokeColor=none;fillColor=none;align=left;verticalAlign=top;spacingLeft=4;spacingRight=4;overflow=hidden;rotatable=0;points=[[0,0.5],[1,0.5]];portConstraint=eastwest;" parent="HxbU9chUwK0wRNYTGk-D-33" vertex="1">
          <mxGeometry y="58" width="120" height="30" as="geometry" />
        </mxCell>
        <mxCell id="HxbU9chUwK0wRNYTGk-D-37" value="Observer" style="swimlane;fontStyle=3;childLayout=stackLayout;horizontal=1;startSize=26;fillColor=none;horizontalStack=0;resizeParent=1;resizeParentMax=0;resizeLast=0;collapsible=1;marginBottom=0;strokeColor=#000000;strokeWidth=1;" parent="1" vertex="1">
          <mxGeometry x="1220" y="3010" width="120" height="52" as="geometry" />
        </mxCell>
        <mxCell id="HxbU9chUwK0wRNYTGk-D-40" value="Update()" style="text;strokeColor=none;fillColor=none;align=left;verticalAlign=top;spacingLeft=4;spacingRight=4;overflow=hidden;rotatable=0;points=[[0,0.5],[1,0.5]];portConstraint=eastwest;" parent="HxbU9chUwK0wRNYTGk-D-37" vertex="1">
          <mxGeometry y="26" width="120" height="26" as="geometry" />
        </mxCell>
        <mxCell id="HxbU9chUwK0wRNYTGk-D-41" value="" style="endArrow=block;endSize=16;endFill=0;html=1;rounded=0;strokeWidth=1;fontSize=22;" parent="1" edge="1">
          <mxGeometry x="0.25" y="90" width="160" relative="1" as="geometry">
            <mxPoint x="1280.25" y="3140" as="sourcePoint" />
            <mxPoint x="1280" y="3090" as="targetPoint" />
            <mxPoint as="offset" />
          </mxGeometry>
        </mxCell>
        <mxCell id="HxbU9chUwK0wRNYTGk-D-42" value="" style="endArrow=none;html=1;rounded=0;strokeWidth=1;fontSize=22;exitX=0.5;exitY=1;exitDx=0;exitDy=0;exitPerimeter=0;" parent="1" source="HxbU9chUwK0wRNYTGk-D-40" edge="1">
          <mxGeometry width="50" height="50" relative="1" as="geometry">
            <mxPoint x="1279" y="3050" as="sourcePoint" />
            <mxPoint x="1280" y="3092" as="targetPoint" />
          </mxGeometry>
        </mxCell>
        <mxCell id="HxbU9chUwK0wRNYTGk-D-44" style="edgeStyle=none;rounded=0;orthogonalLoop=1;jettySize=auto;html=1;exitX=0;exitY=0.5;exitDx=0;exitDy=0;strokeWidth=1;fontSize=22;startArrow=none;startFill=0;" parent="1" source="HxbU9chUwK0wRNYTGk-D-34" edge="1">
          <mxGeometry relative="1" as="geometry">
            <mxPoint x="1040" y="3178.047619047619" as="targetPoint" />
          </mxGeometry>
        </mxCell>
        <mxCell id="HxbU9chUwK0wRNYTGk-D-45" value="subject" style="text;html=1;strokeColor=none;fillColor=none;align=center;verticalAlign=middle;whiteSpace=wrap;rounded=0;fontSize=10;" parent="1" vertex="1">
          <mxGeometry x="1180" y="3166" width="40" height="10" as="geometry" />
        </mxCell>
        <mxCell id="HxbU9chUwK0wRNYTGk-D-46" value="" style="endArrow=classic;html=1;rounded=0;strokeWidth=1;fontSize=10;" parent="1" edge="1">
          <mxGeometry width="50" height="50" relative="1" as="geometry">
            <mxPoint x="1040" y="3020" as="sourcePoint" />
            <mxPoint x="1220" y="3020" as="targetPoint" />
          </mxGeometry>
        </mxCell>
        <mxCell id="HxbU9chUwK0wRNYTGk-D-47" value="observers" style="text;html=1;strokeColor=none;fillColor=none;align=center;verticalAlign=middle;whiteSpace=wrap;rounded=0;fontSize=10;" parent="1" vertex="1">
          <mxGeometry x="1045" y="3007" width="40" height="10" as="geometry" />
        </mxCell>
        <mxCell id="7VSEJR29RxmZo8u8v-T5-73" style="edgeStyle=orthogonalEdgeStyle;rounded=0;orthogonalLoop=1;jettySize=auto;html=1;exitX=0.5;exitY=0;exitDx=0;exitDy=0;endArrow=open;endFill=0;entryX=0;entryY=0.5;entryDx=0;entryDy=0;fontStyle=1;strokeWidth=2;" parent="1" source="7VSEJR29RxmZo8u8v-T5-34" target="7VSEJR29RxmZo8u8v-T5-41" edge="1">
          <mxGeometry relative="1" as="geometry">
            <mxPoint x="1630" y="732" as="targetPoint" />
          </mxGeometry>
        </mxCell>
        <mxCell id="7VSEJR29RxmZo8u8v-T5-34" value="Robot" style="swimlane;fontStyle=3;childLayout=stackLayout;horizontal=1;startSize=26;fillColor=none;horizontalStack=0;resizeParent=1;resizeParentMax=0;resizeLast=0;collapsible=1;marginBottom=0;strokeWidth=2;" parent="1" vertex="1">
          <mxGeometry x="1400" y="832" width="260" height="234" as="geometry" />
        </mxCell>
        <mxCell id="7VSEJR29RxmZo8u8v-T5-35" value="+ Robot(String name)" style="text;strokeColor=none;fillColor=none;align=left;verticalAlign=top;spacingLeft=4;spacingRight=4;overflow=hidden;rotatable=0;points=[[0,0.5],[1,0.5]];portConstraint=eastwest;fontStyle=1;strokeWidth=2;" parent="7VSEJR29RxmZo8u8v-T5-34" vertex="1">
          <mxGeometry y="26" width="260" height="26" as="geometry" />
        </mxCell>
        <mxCell id="7VSEJR29RxmZo8u8v-T5-36" value="+ getName() : String" style="text;strokeColor=none;fillColor=none;align=left;verticalAlign=top;spacingLeft=4;spacingRight=4;overflow=hidden;rotatable=0;points=[[0,0.5],[1,0.5]];portConstraint=eastwest;fontStyle=1;strokeWidth=2;" parent="7VSEJR29RxmZo8u8v-T5-34" vertex="1">
          <mxGeometry y="52" width="260" height="26" as="geometry" />
        </mxCell>
        <mxCell id="7VSEJR29RxmZo8u8v-T5-93" value="+ addAttackOption(Attack attackoption)" style="text;strokeColor=none;fillColor=none;align=left;verticalAlign=top;spacingLeft=4;spacingRight=4;overflow=hidden;rotatable=0;points=[[0,0.5],[1,0.5]];portConstraint=eastwest;fontStyle=1;strokeWidth=2;" parent="7VSEJR29RxmZo8u8v-T5-34" vertex="1">
          <mxGeometry y="78" width="260" height="26" as="geometry" />
        </mxCell>
        <mxCell id="7VSEJR29RxmZo8u8v-T5-90" value="+ deleteAttackOption(Attack attackoption)" style="text;strokeColor=none;fillColor=none;align=left;verticalAlign=top;spacingLeft=4;spacingRight=4;overflow=hidden;rotatable=0;points=[[0,0.5],[1,0.5]];portConstraint=eastwest;fontStyle=1;strokeWidth=2;" parent="7VSEJR29RxmZo8u8v-T5-34" vertex="1">
          <mxGeometry y="104" width="260" height="26" as="geometry" />
        </mxCell>
        <mxCell id="7VSEJR29RxmZo8u8v-T5-94" value="+ addMoveOption(Move moveoption)" style="text;strokeColor=none;fillColor=none;align=left;verticalAlign=top;spacingLeft=4;spacingRight=4;overflow=hidden;rotatable=0;points=[[0,0.5],[1,0.5]];portConstraint=eastwest;fontStyle=1;strokeWidth=2;" parent="7VSEJR29RxmZo8u8v-T5-34" vertex="1">
          <mxGeometry y="130" width="260" height="26" as="geometry" />
        </mxCell>
        <mxCell id="7VSEJR29RxmZo8u8v-T5-39" value="+ deleteMoveOption(Move moveoption)" style="text;strokeColor=none;fillColor=none;align=left;verticalAlign=top;spacingLeft=4;spacingRight=4;overflow=hidden;rotatable=0;points=[[0,0.5],[1,0.5]];portConstraint=eastwest;fontStyle=1;strokeWidth=2;" parent="7VSEJR29RxmZo8u8v-T5-34" vertex="1">
          <mxGeometry y="156" width="260" height="26" as="geometry" />
        </mxCell>
        <mxCell id="7VSEJR29RxmZo8u8v-T5-38" value="+ attack()" style="text;strokeColor=none;fillColor=none;align=left;verticalAlign=top;spacingLeft=4;spacingRight=4;overflow=hidden;rotatable=0;points=[[0,0.5],[1,0.5]];portConstraint=eastwest;fontStyle=3;strokeWidth=2;" parent="7VSEJR29RxmZo8u8v-T5-34" vertex="1">
          <mxGeometry y="182" width="260" height="26" as="geometry" />
        </mxCell>
        <mxCell id="7VSEJR29RxmZo8u8v-T5-37" value="+ move()" style="text;strokeColor=none;fillColor=none;align=left;verticalAlign=top;spacingLeft=4;spacingRight=4;overflow=hidden;rotatable=0;points=[[0,0.5],[1,0.5]];portConstraint=eastwest;fontStyle=3;strokeWidth=2;" parent="7VSEJR29RxmZo8u8v-T5-34" vertex="1">
          <mxGeometry y="208" width="260" height="26" as="geometry" />
        </mxCell>
        <mxCell id="7VSEJR29RxmZo8u8v-T5-40" value="AttackOptionList" style="swimlane;fontStyle=1;childLayout=stackLayout;horizontal=1;startSize=26;fillColor=none;horizontalStack=0;resizeParent=1;resizeParentMax=0;resizeLast=0;collapsible=1;marginBottom=0;strokeWidth=2;" parent="1" vertex="1">
          <mxGeometry x="1680" y="626" width="260" height="104" as="geometry" />
        </mxCell>
        <mxCell id="7VSEJR29RxmZo8u8v-T5-96" value="+ addAttackOption(Attack attackOption)" style="text;strokeColor=none;fillColor=none;align=left;verticalAlign=top;spacingLeft=4;spacingRight=4;overflow=hidden;rotatable=0;points=[[0,0.5],[1,0.5]];portConstraint=eastwest;fontStyle=1;strokeWidth=2;" parent="7VSEJR29RxmZo8u8v-T5-40" vertex="1">
          <mxGeometry y="26" width="260" height="26" as="geometry" />
        </mxCell>
        <mxCell id="7VSEJR29RxmZo8u8v-T5-41" value="+ deleteAttackOption(Attack attackOption)" style="text;strokeColor=none;fillColor=none;align=left;verticalAlign=top;spacingLeft=4;spacingRight=4;overflow=hidden;rotatable=0;points=[[0,0.5],[1,0.5]];portConstraint=eastwest;fontStyle=1;strokeWidth=2;" parent="7VSEJR29RxmZo8u8v-T5-40" vertex="1">
          <mxGeometry y="52" width="260" height="26" as="geometry" />
        </mxCell>
        <mxCell id="7VSEJR29RxmZo8u8v-T5-45" value="- attackOptions : Vector&lt;Attack&gt;" style="text;strokeColor=none;fillColor=none;align=left;verticalAlign=top;spacingLeft=4;spacingRight=4;overflow=hidden;rotatable=0;points=[[0,0.5],[1,0.5]];portConstraint=eastwest;fontStyle=1;strokeWidth=2;" parent="7VSEJR29RxmZo8u8v-T5-40" vertex="1">
          <mxGeometry y="78" width="260" height="26" as="geometry" />
        </mxCell>
        <mxCell id="7VSEJR29RxmZo8u8v-T5-46" value="Attack" style="swimlane;fontStyle=3;childLayout=stackLayout;horizontal=1;startSize=26;fillColor=none;horizontalStack=0;resizeParent=1;resizeParentMax=0;resizeLast=0;collapsible=1;marginBottom=0;strokeWidth=2;" parent="1" vertex="1">
          <mxGeometry x="2010" y="652" width="250" height="52" as="geometry" />
        </mxCell>
        <mxCell id="7VSEJR29RxmZo8u8v-T5-47" value="+ attack()" style="text;strokeColor=none;fillColor=none;align=left;verticalAlign=top;spacingLeft=4;spacingRight=4;overflow=hidden;rotatable=0;points=[[0,0.5],[1,0.5]];portConstraint=eastwest;fontStyle=3;strokeWidth=2;" parent="7VSEJR29RxmZo8u8v-T5-46" vertex="1">
          <mxGeometry y="26" width="250" height="26" as="geometry" />
        </mxCell>
        <mxCell id="7VSEJR29RxmZo8u8v-T5-54" value="PunchAttack" style="swimlane;fontStyle=1;childLayout=stackLayout;horizontal=1;startSize=26;fillColor=none;horizontalStack=0;resizeParent=1;resizeParentMax=0;resizeLast=0;collapsible=1;marginBottom=0;strokeWidth=2;" parent="1" vertex="1">
          <mxGeometry x="2310" y="600" width="250" height="52" as="geometry" />
        </mxCell>
        <mxCell id="7VSEJR29RxmZo8u8v-T5-55" value="+ attack()" style="text;strokeColor=none;fillColor=none;align=left;verticalAlign=top;spacingLeft=4;spacingRight=4;overflow=hidden;rotatable=0;points=[[0,0.5],[1,0.5]];portConstraint=eastwest;fontStyle=1;strokeWidth=2;" parent="7VSEJR29RxmZo8u8v-T5-54" vertex="1">
          <mxGeometry y="26" width="250" height="26" as="geometry" />
        </mxCell>
        <mxCell id="7VSEJR29RxmZo8u8v-T5-59" style="edgeStyle=orthogonalEdgeStyle;rounded=0;orthogonalLoop=1;jettySize=auto;html=1;exitX=0;exitY=0.25;exitDx=0;exitDy=0;entryX=1;entryY=0.5;entryDx=0;entryDy=0;endArrow=block;endFill=0;fontStyle=1;strokeWidth=2;" parent="1" source="7VSEJR29RxmZo8u8v-T5-56" target="7VSEJR29RxmZo8u8v-T5-47" edge="1">
          <mxGeometry relative="1" as="geometry" />
        </mxCell>
        <mxCell id="7VSEJR29RxmZo8u8v-T5-56" value="MissileAttack" style="swimlane;fontStyle=1;childLayout=stackLayout;horizontal=1;startSize=26;fillColor=none;horizontalStack=0;resizeParent=1;resizeParentMax=0;resizeLast=0;collapsible=1;marginBottom=0;strokeWidth=2;" parent="1" vertex="1">
          <mxGeometry x="2310" y="700" width="250" height="52" as="geometry" />
        </mxCell>
        <mxCell id="7VSEJR29RxmZo8u8v-T5-57" value="+ attack()" style="text;strokeColor=none;fillColor=none;align=left;verticalAlign=top;spacingLeft=4;spacingRight=4;overflow=hidden;rotatable=0;points=[[0,0.5],[1,0.5]];portConstraint=eastwest;fontStyle=1;strokeWidth=2;" parent="7VSEJR29RxmZo8u8v-T5-56" vertex="1">
          <mxGeometry y="26" width="250" height="26" as="geometry" />
        </mxCell>
        <mxCell id="7VSEJR29RxmZo8u8v-T5-58" style="edgeStyle=orthogonalEdgeStyle;rounded=0;orthogonalLoop=1;jettySize=auto;html=1;exitX=0;exitY=0.5;exitDx=0;exitDy=0;entryX=1;entryY=0.25;entryDx=0;entryDy=0;endArrow=block;endFill=0;fontStyle=1;strokeWidth=2;" parent="1" source="7VSEJR29RxmZo8u8v-T5-55" target="7VSEJR29RxmZo8u8v-T5-46" edge="1">
          <mxGeometry relative="1" as="geometry" />
        </mxCell>
        <mxCell id="7VSEJR29RxmZo8u8v-T5-60" style="edgeStyle=orthogonalEdgeStyle;rounded=0;orthogonalLoop=1;jettySize=auto;html=1;entryX=0;entryY=0.5;entryDx=0;entryDy=0;endArrow=openThin;endFill=0;fontStyle=1;strokeWidth=2;" parent="1" target="7VSEJR29RxmZo8u8v-T5-47" edge="1">
          <mxGeometry relative="1" as="geometry">
            <mxPoint x="1940" y="691" as="sourcePoint" />
          </mxGeometry>
        </mxCell>
        <mxCell id="7VSEJR29RxmZo8u8v-T5-71" style="edgeStyle=orthogonalEdgeStyle;rounded=0;orthogonalLoop=1;jettySize=auto;html=1;exitX=0;exitY=0.5;exitDx=0;exitDy=0;entryX=1;entryY=0.5;entryDx=0;entryDy=0;endArrow=block;endFill=0;fontStyle=1;strokeWidth=2;" parent="1" source="7VSEJR29RxmZo8u8v-T5-62" target="7VSEJR29RxmZo8u8v-T5-35" edge="1">
          <mxGeometry relative="1" as="geometry" />
        </mxCell>
        <mxCell id="7VSEJR29RxmZo8u8v-T5-62" value="TaekwonV" style="swimlane;fontStyle=1;childLayout=stackLayout;horizontal=1;startSize=26;fillColor=none;horizontalStack=0;resizeParent=1;resizeParentMax=0;resizeLast=0;collapsible=1;marginBottom=0;strokeWidth=2;" parent="1" vertex="1">
          <mxGeometry x="1730" y="812" width="250" height="78" as="geometry" />
        </mxCell>
        <mxCell id="7VSEJR29RxmZo8u8v-T5-66" value="+ attack()" style="text;strokeColor=none;fillColor=none;align=left;verticalAlign=top;spacingLeft=4;spacingRight=4;overflow=hidden;rotatable=0;points=[[0,0.5],[1,0.5]];portConstraint=eastwest;fontStyle=1;strokeWidth=2;" parent="7VSEJR29RxmZo8u8v-T5-62" vertex="1">
          <mxGeometry y="26" width="250" height="26" as="geometry" />
        </mxCell>
        <mxCell id="7VSEJR29RxmZo8u8v-T5-67" value="+ move()" style="text;strokeColor=none;fillColor=none;align=left;verticalAlign=top;spacingLeft=4;spacingRight=4;overflow=hidden;rotatable=0;points=[[0,0.5],[1,0.5]];portConstraint=eastwest;fontStyle=1;strokeWidth=2;" parent="7VSEJR29RxmZo8u8v-T5-62" vertex="1">
          <mxGeometry y="52" width="250" height="26" as="geometry" />
        </mxCell>
        <mxCell id="7VSEJR29RxmZo8u8v-T5-72" style="edgeStyle=orthogonalEdgeStyle;rounded=0;orthogonalLoop=1;jettySize=auto;html=1;exitX=0;exitY=0.25;exitDx=0;exitDy=0;endArrow=block;endFill=0;entryX=1;entryY=0.5;entryDx=0;entryDy=0;fontStyle=1;strokeWidth=2;" parent="1" source="7VSEJR29RxmZo8u8v-T5-68" target="7VSEJR29RxmZo8u8v-T5-90" edge="1">
          <mxGeometry relative="1" as="geometry">
            <mxPoint x="1690" y="962" as="targetPoint" />
          </mxGeometry>
        </mxCell>
        <mxCell id="7VSEJR29RxmZo8u8v-T5-68" value="Atom" style="swimlane;fontStyle=1;childLayout=stackLayout;horizontal=1;startSize=26;fillColor=none;horizontalStack=0;resizeParent=1;resizeParentMax=0;resizeLast=0;collapsible=1;marginBottom=0;strokeWidth=2;" parent="1" vertex="1">
          <mxGeometry x="1730" y="950" width="250" height="78" as="geometry" />
        </mxCell>
        <mxCell id="7VSEJR29RxmZo8u8v-T5-69" value="+ attack()" style="text;strokeColor=none;fillColor=none;align=left;verticalAlign=top;spacingLeft=4;spacingRight=4;overflow=hidden;rotatable=0;points=[[0,0.5],[1,0.5]];portConstraint=eastwest;fontStyle=1;strokeWidth=2;" parent="7VSEJR29RxmZo8u8v-T5-68" vertex="1">
          <mxGeometry y="26" width="250" height="26" as="geometry" />
        </mxCell>
        <mxCell id="7VSEJR29RxmZo8u8v-T5-70" value="+ move()" style="text;strokeColor=none;fillColor=none;align=left;verticalAlign=top;spacingLeft=4;spacingRight=4;overflow=hidden;rotatable=0;points=[[0,0.5],[1,0.5]];portConstraint=eastwest;fontStyle=1;strokeWidth=2;" parent="7VSEJR29RxmZo8u8v-T5-68" vertex="1">
          <mxGeometry y="52" width="250" height="26" as="geometry" />
        </mxCell>
        <mxCell id="7VSEJR29RxmZo8u8v-T5-74" value="MoveOptionList" style="swimlane;fontStyle=1;childLayout=stackLayout;horizontal=1;startSize=26;fillColor=none;horizontalStack=0;resizeParent=1;resizeParentMax=0;resizeLast=0;collapsible=1;marginBottom=0;strokeWidth=2;" parent="1" vertex="1">
          <mxGeometry x="1680" y="1094" width="250" height="104" as="geometry" />
        </mxCell>
        <mxCell id="7VSEJR29RxmZo8u8v-T5-95" value="+ addMoveOption(Move moveOption)" style="text;strokeColor=none;fillColor=none;align=left;verticalAlign=top;spacingLeft=4;spacingRight=4;overflow=hidden;rotatable=0;points=[[0,0.5],[1,0.5]];portConstraint=eastwest;fontStyle=1;strokeWidth=2;" parent="7VSEJR29RxmZo8u8v-T5-74" vertex="1">
          <mxGeometry y="26" width="250" height="26" as="geometry" />
        </mxCell>
        <mxCell id="7VSEJR29RxmZo8u8v-T5-75" value="+ deleteMoveOption(Move moveOption)" style="text;strokeColor=none;fillColor=none;align=left;verticalAlign=top;spacingLeft=4;spacingRight=4;overflow=hidden;rotatable=0;points=[[0,0.5],[1,0.5]];portConstraint=eastwest;fontStyle=1;strokeWidth=2;" parent="7VSEJR29RxmZo8u8v-T5-74" vertex="1">
          <mxGeometry y="52" width="250" height="26" as="geometry" />
        </mxCell>
        <mxCell id="7VSEJR29RxmZo8u8v-T5-76" value="- moveOptions : Vector&lt;Move&gt;" style="text;strokeColor=none;fillColor=none;align=left;verticalAlign=top;spacingLeft=4;spacingRight=4;overflow=hidden;rotatable=0;points=[[0,0.5],[1,0.5]];portConstraint=eastwest;fontStyle=1;strokeWidth=2;" parent="7VSEJR29RxmZo8u8v-T5-74" vertex="1">
          <mxGeometry y="78" width="250" height="26" as="geometry" />
        </mxCell>
        <mxCell id="7VSEJR29RxmZo8u8v-T5-77" value="Move" style="swimlane;fontStyle=3;childLayout=stackLayout;horizontal=1;startSize=26;fillColor=none;horizontalStack=0;resizeParent=1;resizeParentMax=0;resizeLast=0;collapsible=1;marginBottom=0;strokeWidth=2;" parent="1" vertex="1">
          <mxGeometry x="2010" y="1120" width="250" height="52" as="geometry" />
        </mxCell>
        <mxCell id="7VSEJR29RxmZo8u8v-T5-78" value="+ move()" style="text;strokeColor=none;fillColor=none;align=left;verticalAlign=top;spacingLeft=4;spacingRight=4;overflow=hidden;rotatable=0;points=[[0,0.5],[1,0.5]];portConstraint=eastwest;fontStyle=3;strokeWidth=2;" parent="7VSEJR29RxmZo8u8v-T5-77" vertex="1">
          <mxGeometry y="26" width="250" height="26" as="geometry" />
        </mxCell>
        <mxCell id="7VSEJR29RxmZo8u8v-T5-79" value="walkMove" style="swimlane;fontStyle=1;childLayout=stackLayout;horizontal=1;startSize=26;fillColor=none;horizontalStack=0;resizeParent=1;resizeParentMax=0;resizeLast=0;collapsible=1;marginBottom=0;strokeWidth=2;" parent="1" vertex="1">
          <mxGeometry x="2310" y="1068" width="250" height="52" as="geometry" />
        </mxCell>
        <mxCell id="7VSEJR29RxmZo8u8v-T5-80" value="+ move()" style="text;strokeColor=none;fillColor=none;align=left;verticalAlign=top;spacingLeft=4;spacingRight=4;overflow=hidden;rotatable=0;points=[[0,0.5],[1,0.5]];portConstraint=eastwest;fontStyle=1;strokeWidth=2;" parent="7VSEJR29RxmZo8u8v-T5-79" vertex="1">
          <mxGeometry y="26" width="250" height="26" as="geometry" />
        </mxCell>
        <mxCell id="7VSEJR29RxmZo8u8v-T5-81" style="edgeStyle=orthogonalEdgeStyle;rounded=0;orthogonalLoop=1;jettySize=auto;html=1;exitX=0;exitY=0.25;exitDx=0;exitDy=0;entryX=1;entryY=0.5;entryDx=0;entryDy=0;endArrow=block;endFill=0;fontStyle=1;strokeWidth=2;" parent="1" source="7VSEJR29RxmZo8u8v-T5-82" edge="1">
          <mxGeometry relative="1" as="geometry">
            <mxPoint x="2259.9999999999995" y="1146.0000000000005" as="targetPoint" />
          </mxGeometry>
        </mxCell>
        <mxCell id="7VSEJR29RxmZo8u8v-T5-82" value="runMove" style="swimlane;fontStyle=1;childLayout=stackLayout;horizontal=1;startSize=26;fillColor=none;horizontalStack=0;resizeParent=1;resizeParentMax=0;resizeLast=0;collapsible=1;marginBottom=0;strokeWidth=2;" parent="1" vertex="1">
          <mxGeometry x="2310" y="1133" width="250" height="52" as="geometry" />
        </mxCell>
        <mxCell id="7VSEJR29RxmZo8u8v-T5-83" value="+ move()" style="text;strokeColor=none;fillColor=none;align=left;verticalAlign=top;spacingLeft=4;spacingRight=4;overflow=hidden;rotatable=0;points=[[0,0.5],[1,0.5]];portConstraint=eastwest;fontStyle=1;strokeWidth=2;" parent="7VSEJR29RxmZo8u8v-T5-82" vertex="1">
          <mxGeometry y="26" width="250" height="26" as="geometry" />
        </mxCell>
        <mxCell id="7VSEJR29RxmZo8u8v-T5-84" style="edgeStyle=orthogonalEdgeStyle;rounded=0;orthogonalLoop=1;jettySize=auto;html=1;exitX=0;exitY=0.5;exitDx=0;exitDy=0;entryX=1;entryY=0.25;entryDx=0;entryDy=0;endArrow=block;endFill=0;fontStyle=1;strokeWidth=2;" parent="1" source="7VSEJR29RxmZo8u8v-T5-80" target="7VSEJR29RxmZo8u8v-T5-77" edge="1">
          <mxGeometry relative="1" as="geometry" />
        </mxCell>
        <mxCell id="7VSEJR29RxmZo8u8v-T5-85" style="edgeStyle=orthogonalEdgeStyle;rounded=0;orthogonalLoop=1;jettySize=auto;html=1;exitX=1;exitY=0.5;exitDx=0;exitDy=0;entryX=0;entryY=0.5;entryDx=0;entryDy=0;endArrow=openThin;endFill=0;fontStyle=1;strokeWidth=2;" parent="1" target="7VSEJR29RxmZo8u8v-T5-78" edge="1">
          <mxGeometry relative="1" as="geometry">
            <mxPoint x="1929.9999999999995" y="1159" as="sourcePoint" />
          </mxGeometry>
        </mxCell>
        <mxCell id="7VSEJR29RxmZo8u8v-T5-88" style="edgeStyle=orthogonalEdgeStyle;rounded=0;orthogonalLoop=1;jettySize=auto;html=1;exitX=0;exitY=0.25;exitDx=0;exitDy=0;entryX=1;entryY=0.5;entryDx=0;entryDy=0;endArrow=block;endFill=0;fontStyle=1;strokeWidth=2;" parent="1" source="7VSEJR29RxmZo8u8v-T5-86" target="7VSEJR29RxmZo8u8v-T5-78" edge="1">
          <mxGeometry relative="1" as="geometry" />
        </mxCell>
        <mxCell id="7VSEJR29RxmZo8u8v-T5-86" value="flyMove" style="swimlane;fontStyle=1;childLayout=stackLayout;horizontal=1;startSize=26;fillColor=none;horizontalStack=0;resizeParent=1;resizeParentMax=0;resizeLast=0;collapsible=1;marginBottom=0;strokeWidth=2;" parent="1" vertex="1">
          <mxGeometry x="2310" y="1202" width="250" height="52" as="geometry" />
        </mxCell>
        <mxCell id="7VSEJR29RxmZo8u8v-T5-87" value="+ move()" style="text;strokeColor=none;fillColor=none;align=left;verticalAlign=top;spacingLeft=4;spacingRight=4;overflow=hidden;rotatable=0;points=[[0,0.5],[1,0.5]];portConstraint=eastwest;fontStyle=1;strokeWidth=2;" parent="7VSEJR29RxmZo8u8v-T5-86" vertex="1">
          <mxGeometry y="26" width="250" height="26" as="geometry" />
        </mxCell>
        <mxCell id="7VSEJR29RxmZo8u8v-T5-89" style="edgeStyle=orthogonalEdgeStyle;rounded=0;orthogonalLoop=1;jettySize=auto;html=1;endArrow=open;endFill=0;entryX=0;entryY=0.5;entryDx=0;entryDy=0;exitX=0.502;exitY=1.009;exitDx=0;exitDy=0;exitPerimeter=0;fontStyle=1;strokeWidth=2;" parent="1" source="7VSEJR29RxmZo8u8v-T5-37" target="7VSEJR29RxmZo8u8v-T5-75" edge="1">
          <mxGeometry relative="1" as="geometry">
            <mxPoint x="1530" y="1002" as="sourcePoint" />
            <mxPoint x="1625" y="1133" as="targetPoint" />
          </mxGeometry>
        </mxCell>
        <mxCell id="7VSEJR29RxmZo8u8v-T5-91" value="attackOptionList" style="text;html=1;strokeColor=none;fillColor=none;align=center;verticalAlign=middle;whiteSpace=wrap;rounded=0;fontSize=10;fontStyle=1;strokeWidth=2;" parent="1" vertex="1">
          <mxGeometry x="1550" y="673" width="40" height="10" as="geometry" />
        </mxCell>
        <mxCell id="7VSEJR29RxmZo8u8v-T5-92" value="moveOptionList" style="text;html=1;strokeColor=none;fillColor=none;align=center;verticalAlign=middle;whiteSpace=wrap;rounded=0;fontSize=10;fontStyle=1;strokeWidth=2;" parent="1" vertex="1">
          <mxGeometry x="1560" y="1141" width="40" height="10" as="geometry" />
        </mxCell>
        <mxCell id="4S_ncgt9_I7_Gjmnx4sX-1" style="edgeStyle=orthogonalEdgeStyle;rounded=0;orthogonalLoop=1;jettySize=auto;html=1;exitX=0;exitY=0.25;exitDx=0;exitDy=0;endArrow=block;endFill=0;entryX=1;entryY=0.5;entryDx=0;entryDy=0;fontStyle=1;strokeWidth=2;" parent="1" source="4S_ncgt9_I7_Gjmnx4sX-2" target="7VSEJR29RxmZo8u8v-T5-93" edge="1">
          <mxGeometry relative="1" as="geometry">
            <mxPoint x="2000" y="880" as="targetPoint" />
            <Array as="points">
              <mxPoint x="2070" y="923" />
            </Array>
          </mxGeometry>
        </mxCell>
        <mxCell id="4S_ncgt9_I7_Gjmnx4sX-2" value="Sunguard" style="swimlane;fontStyle=1;childLayout=stackLayout;horizontal=1;startSize=26;fillColor=none;horizontalStack=0;resizeParent=1;resizeParentMax=0;resizeLast=0;collapsible=1;marginBottom=0;strokeWidth=2;" parent="1" vertex="1">
          <mxGeometry x="2070" y="881" width="250" height="78" as="geometry" />
        </mxCell>
        <mxCell id="4S_ncgt9_I7_Gjmnx4sX-3" value="+ attack()" style="text;strokeColor=none;fillColor=none;align=left;verticalAlign=top;spacingLeft=4;spacingRight=4;overflow=hidden;rotatable=0;points=[[0,0.5],[1,0.5]];portConstraint=eastwest;fontStyle=1;strokeWidth=2;" parent="4S_ncgt9_I7_Gjmnx4sX-2" vertex="1">
          <mxGeometry y="26" width="250" height="26" as="geometry" />
        </mxCell>
        <mxCell id="4S_ncgt9_I7_Gjmnx4sX-4" value="+ move()" style="text;strokeColor=none;fillColor=none;align=left;verticalAlign=top;spacingLeft=4;spacingRight=4;overflow=hidden;rotatable=0;points=[[0,0.5],[1,0.5]];portConstraint=eastwest;fontStyle=1;strokeWidth=2;" parent="4S_ncgt9_I7_Gjmnx4sX-2" vertex="1">
          <mxGeometry y="52" width="250" height="26" as="geometry" />
        </mxCell>
        <mxCell id="Z7vZMawhTvA8cL5-oiGD-1" value="ConcreteSubject" style="swimlane;fontStyle=1;align=center;verticalAlign=top;childLayout=stackLayout;horizontal=1;startSize=26;horizontalStack=0;resizeParent=1;resizeParentMax=0;resizeLast=0;collapsible=1;marginBottom=0;" parent="1" vertex="1">
          <mxGeometry x="1760" y="2860" width="120" height="100" as="geometry" />
        </mxCell>
        <mxCell id="Z7vZMawhTvA8cL5-oiGD-2" value="GetState()&#xa;SetState()" style="text;strokeColor=none;fillColor=none;align=left;verticalAlign=top;spacingLeft=4;spacingRight=4;overflow=hidden;rotatable=0;points=[[0,0.5],[1,0.5]];portConstraint=eastwest;" parent="Z7vZMawhTvA8cL5-oiGD-1" vertex="1">
          <mxGeometry y="26" width="120" height="34" as="geometry" />
        </mxCell>
        <mxCell id="Z7vZMawhTvA8cL5-oiGD-3" value="" style="line;strokeWidth=1;fillColor=none;align=left;verticalAlign=middle;spacingTop=-1;spacingLeft=3;spacingRight=3;rotatable=0;labelPosition=right;points=[];portConstraint=eastwest;strokeColor=inherit;" parent="Z7vZMawhTvA8cL5-oiGD-1" vertex="1">
          <mxGeometry y="60" width="120" height="8" as="geometry" />
        </mxCell>
        <mxCell id="Z7vZMawhTvA8cL5-oiGD-4" value="subjectState" style="text;strokeColor=none;fillColor=none;align=left;verticalAlign=top;spacingLeft=4;spacingRight=4;overflow=hidden;rotatable=0;points=[[0,0.5],[1,0.5]];portConstraint=eastwest;" parent="Z7vZMawhTvA8cL5-oiGD-1" vertex="1">
          <mxGeometry y="68" width="120" height="32" as="geometry" />
        </mxCell>
        <mxCell id="Z7vZMawhTvA8cL5-oiGD-5" value="Subject" style="swimlane;fontStyle=3;childLayout=stackLayout;horizontal=1;startSize=26;fillColor=none;horizontalStack=0;resizeParent=1;resizeParentMax=0;resizeLast=0;collapsible=1;marginBottom=0;strokeColor=#000000;strokeWidth=1;" parent="1" vertex="1">
          <mxGeometry x="1760" y="2680" width="120" height="104" as="geometry" />
        </mxCell>
        <mxCell id="Z7vZMawhTvA8cL5-oiGD-6" value="Attatch(Observer)" style="text;strokeColor=none;fillColor=none;align=left;verticalAlign=top;spacingLeft=4;spacingRight=4;overflow=hidden;rotatable=0;points=[[0,0.5],[1,0.5]];portConstraint=eastwest;" parent="Z7vZMawhTvA8cL5-oiGD-5" vertex="1">
          <mxGeometry y="26" width="120" height="26" as="geometry" />
        </mxCell>
        <mxCell id="Z7vZMawhTvA8cL5-oiGD-7" value="Detatch(Observer)" style="text;strokeColor=none;fillColor=none;align=left;verticalAlign=top;spacingLeft=4;spacingRight=4;overflow=hidden;rotatable=0;points=[[0,0.5],[1,0.5]];portConstraint=eastwest;" parent="Z7vZMawhTvA8cL5-oiGD-5" vertex="1">
          <mxGeometry y="52" width="120" height="26" as="geometry" />
        </mxCell>
        <mxCell id="Z7vZMawhTvA8cL5-oiGD-8" value="Notify()" style="text;strokeColor=none;fillColor=none;align=left;verticalAlign=top;spacingLeft=4;spacingRight=4;overflow=hidden;rotatable=0;points=[[0,0.5],[1,0.5]];portConstraint=eastwest;" parent="Z7vZMawhTvA8cL5-oiGD-5" vertex="1">
          <mxGeometry y="78" width="120" height="26" as="geometry" />
        </mxCell>
        <mxCell id="Z7vZMawhTvA8cL5-oiGD-9" value="" style="endArrow=block;endSize=16;endFill=0;html=1;rounded=0;strokeWidth=1;fontSize=22;" parent="1" edge="1">
          <mxGeometry x="0.25" y="90" width="160" relative="1" as="geometry">
            <mxPoint x="1820.25" y="2860" as="sourcePoint" />
            <mxPoint x="1820" y="2810" as="targetPoint" />
            <mxPoint as="offset" />
          </mxGeometry>
        </mxCell>
        <mxCell id="Z7vZMawhTvA8cL5-oiGD-10" value="" style="endArrow=none;html=1;rounded=0;strokeWidth=1;fontSize=22;exitX=0.5;exitY=1;exitDx=0;exitDy=0;exitPerimeter=0;" parent="1" source="Z7vZMawhTvA8cL5-oiGD-8" edge="1">
          <mxGeometry width="50" height="50" relative="1" as="geometry">
            <mxPoint x="1819" y="2770" as="sourcePoint" />
            <mxPoint x="1820" y="2812" as="targetPoint" />
          </mxGeometry>
        </mxCell>
        <mxCell id="Z7vZMawhTvA8cL5-oiGD-11" value="ConcreteSubject" style="swimlane;fontStyle=1;align=center;verticalAlign=top;childLayout=stackLayout;horizontal=1;startSize=26;horizontalStack=0;resizeParent=1;resizeParentMax=0;resizeLast=0;collapsible=1;marginBottom=0;" parent="1" vertex="1">
          <mxGeometry x="2060" y="2840" width="120" height="88" as="geometry" />
        </mxCell>
        <mxCell id="Z7vZMawhTvA8cL5-oiGD-12" value="Update()" style="text;strokeColor=none;fillColor=none;align=left;verticalAlign=top;spacingLeft=4;spacingRight=4;overflow=hidden;rotatable=0;points=[[0,0.5],[1,0.5]];portConstraint=eastwest;" parent="Z7vZMawhTvA8cL5-oiGD-11" vertex="1">
          <mxGeometry y="26" width="120" height="24" as="geometry" />
        </mxCell>
        <mxCell id="Z7vZMawhTvA8cL5-oiGD-13" value="" style="line;strokeWidth=1;fillColor=none;align=left;verticalAlign=middle;spacingTop=-1;spacingLeft=3;spacingRight=3;rotatable=0;labelPosition=right;points=[];portConstraint=eastwest;strokeColor=inherit;" parent="Z7vZMawhTvA8cL5-oiGD-11" vertex="1">
          <mxGeometry y="50" width="120" height="8" as="geometry" />
        </mxCell>
        <mxCell id="Z7vZMawhTvA8cL5-oiGD-14" value="observerState" style="text;strokeColor=none;fillColor=none;align=left;verticalAlign=top;spacingLeft=4;spacingRight=4;overflow=hidden;rotatable=0;points=[[0,0.5],[1,0.5]];portConstraint=eastwest;" parent="Z7vZMawhTvA8cL5-oiGD-11" vertex="1">
          <mxGeometry y="58" width="120" height="30" as="geometry" />
        </mxCell>
        <mxCell id="Z7vZMawhTvA8cL5-oiGD-15" value="Observer" style="swimlane;fontStyle=3;childLayout=stackLayout;horizontal=1;startSize=26;fillColor=none;horizontalStack=0;resizeParent=1;resizeParentMax=0;resizeLast=0;collapsible=1;marginBottom=0;strokeColor=#000000;strokeWidth=1;" parent="1" vertex="1">
          <mxGeometry x="2060" y="2710" width="120" height="52" as="geometry" />
        </mxCell>
        <mxCell id="Z7vZMawhTvA8cL5-oiGD-16" value="Update()" style="text;strokeColor=none;fillColor=none;align=left;verticalAlign=top;spacingLeft=4;spacingRight=4;overflow=hidden;rotatable=0;points=[[0,0.5],[1,0.5]];portConstraint=eastwest;" parent="Z7vZMawhTvA8cL5-oiGD-15" vertex="1">
          <mxGeometry y="26" width="120" height="26" as="geometry" />
        </mxCell>
        <mxCell id="Z7vZMawhTvA8cL5-oiGD-17" value="" style="endArrow=block;endSize=16;endFill=0;html=1;rounded=0;strokeWidth=1;fontSize=22;" parent="1" edge="1">
          <mxGeometry x="0.25" y="90" width="160" relative="1" as="geometry">
            <mxPoint x="2120.25" y="2840" as="sourcePoint" />
            <mxPoint x="2120" y="2790" as="targetPoint" />
            <mxPoint as="offset" />
          </mxGeometry>
        </mxCell>
        <mxCell id="Z7vZMawhTvA8cL5-oiGD-18" value="" style="endArrow=none;html=1;rounded=0;strokeWidth=1;fontSize=22;exitX=0.5;exitY=1;exitDx=0;exitDy=0;exitPerimeter=0;" parent="1" source="Z7vZMawhTvA8cL5-oiGD-16" edge="1">
          <mxGeometry width="50" height="50" relative="1" as="geometry">
            <mxPoint x="2119" y="2750" as="sourcePoint" />
            <mxPoint x="2120" y="2792" as="targetPoint" />
          </mxGeometry>
        </mxCell>
        <mxCell id="Z7vZMawhTvA8cL5-oiGD-19" style="edgeStyle=none;rounded=0;orthogonalLoop=1;jettySize=auto;html=1;exitX=0;exitY=0.5;exitDx=0;exitDy=0;strokeWidth=1;fontSize=22;startArrow=none;startFill=0;" parent="1" source="Z7vZMawhTvA8cL5-oiGD-12" edge="1">
          <mxGeometry relative="1" as="geometry">
            <mxPoint x="1880" y="2878.0476190476184" as="targetPoint" />
          </mxGeometry>
        </mxCell>
        <mxCell id="Z7vZMawhTvA8cL5-oiGD-20" value="subject" style="text;html=1;strokeColor=none;fillColor=none;align=center;verticalAlign=middle;whiteSpace=wrap;rounded=0;fontSize=10;" parent="1" vertex="1">
          <mxGeometry x="2020" y="2866" width="40" height="10" as="geometry" />
        </mxCell>
        <mxCell id="Z7vZMawhTvA8cL5-oiGD-21" value="" style="endArrow=classic;html=1;rounded=0;strokeWidth=1;fontSize=10;" parent="1" edge="1">
          <mxGeometry width="50" height="50" relative="1" as="geometry">
            <mxPoint x="1880" y="2720" as="sourcePoint" />
            <mxPoint x="2060" y="2720" as="targetPoint" />
          </mxGeometry>
        </mxCell>
        <mxCell id="Z7vZMawhTvA8cL5-oiGD-22" value="observers" style="text;html=1;strokeColor=none;fillColor=none;align=center;verticalAlign=middle;whiteSpace=wrap;rounded=0;fontSize=10;" parent="1" vertex="1">
          <mxGeometry x="1885" y="2707" width="40" height="10" as="geometry" />
        </mxCell>
        <mxCell id="Z7vZMawhTvA8cL5-oiGD-34" style="edgeStyle=orthogonalEdgeStyle;rounded=0;orthogonalLoop=1;jettySize=auto;html=1;exitX=0.5;exitY=0;exitDx=0;exitDy=0;entryX=0.5;entryY=1;entryDx=0;entryDy=0;endArrow=block;endFill=0;" parent="1" source="Z7vZMawhTvA8cL5-oiGD-24" target="Z7vZMawhTvA8cL5-oiGD-29" edge="1">
          <mxGeometry relative="1" as="geometry" />
        </mxCell>
        <mxCell id="Z7vZMawhTvA8cL5-oiGD-24" value="ScoreRecord" style="swimlane;fontStyle=1;childLayout=stackLayout;horizontal=1;startSize=26;fillColor=none;horizontalStack=0;resizeParent=1;resizeParentMax=0;resizeLast=0;collapsible=1;marginBottom=0;strokeWidth=2;" parent="1" vertex="1">
          <mxGeometry x="1320" y="1542" width="280" height="104" as="geometry" />
        </mxCell>
        <mxCell id="Z7vZMawhTvA8cL5-oiGD-25" value="- scores: List&lt;Integer&gt;" style="text;strokeColor=default;fillColor=none;align=left;verticalAlign=top;spacingLeft=4;spacingRight=4;overflow=hidden;rotatable=0;points=[[0,0.5],[1,0.5]];portConstraint=eastwest;fontStyle=1;strokeWidth=1;" parent="Z7vZMawhTvA8cL5-oiGD-24" vertex="1">
          <mxGeometry y="26" width="280" height="26" as="geometry" />
        </mxCell>
        <mxCell id="Z7vZMawhTvA8cL5-oiGD-26" value="+ addScore(score: Int): void" style="text;strokeColor=none;fillColor=none;align=left;verticalAlign=top;spacingLeft=4;spacingRight=4;overflow=hidden;rotatable=0;points=[[0,0.5],[1,0.5]];portConstraint=eastwest;fontStyle=1;strokeWidth=2;" parent="Z7vZMawhTvA8cL5-oiGD-24" vertex="1">
          <mxGeometry y="52" width="280" height="26" as="geometry" />
        </mxCell>
        <mxCell id="Z7vZMawhTvA8cL5-oiGD-27" value="+ getScoreRecord(): List&lt;Integer&gt;" style="text;strokeColor=none;fillColor=none;align=left;verticalAlign=top;spacingLeft=4;spacingRight=4;overflow=hidden;rotatable=0;points=[[0,0.5],[1,0.5]];portConstraint=eastwest;fontStyle=1;strokeWidth=2;" parent="Z7vZMawhTvA8cL5-oiGD-24" vertex="1">
          <mxGeometry y="78" width="280" height="26" as="geometry" />
        </mxCell>
        <mxCell id="Z7vZMawhTvA8cL5-oiGD-29" value="AbstractSubject" style="swimlane;fontStyle=3;childLayout=stackLayout;horizontal=1;startSize=26;fillColor=none;horizontalStack=0;resizeParent=1;resizeParentMax=0;resizeLast=0;collapsible=1;marginBottom=0;strokeWidth=2;" parent="1" vertex="1">
          <mxGeometry x="1320" y="1320" width="280" height="104" as="geometry" />
        </mxCell>
        <mxCell id="Z7vZMawhTvA8cL5-oiGD-30" value="+ attatch(observer: Observer): void" style="text;strokeColor=none;fillColor=none;align=left;verticalAlign=top;spacingLeft=4;spacingRight=4;overflow=hidden;rotatable=0;points=[[0,0.5],[1,0.5]];portConstraint=eastwest;fontStyle=1;strokeWidth=1;" parent="Z7vZMawhTvA8cL5-oiGD-29" vertex="1">
          <mxGeometry y="26" width="280" height="26" as="geometry" />
        </mxCell>
        <mxCell id="Z7vZMawhTvA8cL5-oiGD-31" value="+ detatch(observer: Observer): void" style="text;strokeColor=none;fillColor=none;align=left;verticalAlign=top;spacingLeft=4;spacingRight=4;overflow=hidden;rotatable=0;points=[[0,0.5],[1,0.5]];portConstraint=eastwest;fontStyle=1;strokeWidth=2;" parent="Z7vZMawhTvA8cL5-oiGD-29" vertex="1">
          <mxGeometry y="52" width="280" height="26" as="geometry" />
        </mxCell>
        <mxCell id="Z7vZMawhTvA8cL5-oiGD-32" value="+ notifyObservers(): void" style="text;strokeColor=none;fillColor=none;align=left;verticalAlign=top;spacingLeft=4;spacingRight=4;overflow=hidden;rotatable=0;points=[[0,0.5],[1,0.5]];portConstraint=eastwest;fontStyle=1;strokeWidth=2;" parent="Z7vZMawhTvA8cL5-oiGD-29" vertex="1">
          <mxGeometry y="78" width="280" height="26" as="geometry" />
        </mxCell>
        <mxCell id="Z7vZMawhTvA8cL5-oiGD-35" value="«interface»&lt;br&gt;&lt;b&gt;&lt;i&gt;Observer&lt;/i&gt;&lt;/b&gt;" style="html=1;strokeColor=default;strokeWidth=2;" parent="1" vertex="1">
          <mxGeometry x="2020" y="1344" width="160" height="30" as="geometry" />
        </mxCell>
        <mxCell id="Z7vZMawhTvA8cL5-oiGD-37" value="+ update()" style="text;strokeColor=default;fillColor=none;align=left;verticalAlign=top;spacingLeft=4;spacingRight=4;overflow=hidden;rotatable=0;points=[[0,0.5],[1,0.5]];portConstraint=eastwest;fontStyle=3;strokeWidth=2;" parent="1" vertex="1">
          <mxGeometry x="2020" y="1374" width="160" height="26" as="geometry" />
        </mxCell>
        <mxCell id="Z7vZMawhTvA8cL5-oiGD-38" style="edgeStyle=orthogonalEdgeStyle;rounded=0;orthogonalLoop=1;jettySize=auto;html=1;exitX=1;exitY=0.5;exitDx=0;exitDy=0;entryX=0;entryY=0.5;entryDx=0;entryDy=0;endArrow=open;endFill=0;" parent="1" source="Z7vZMawhTvA8cL5-oiGD-30" target="Z7vZMawhTvA8cL5-oiGD-35" edge="1">
          <mxGeometry relative="1" as="geometry" />
        </mxCell>
        <mxCell id="Z7vZMawhTvA8cL5-oiGD-50" style="edgeStyle=orthogonalEdgeStyle;rounded=0;orthogonalLoop=1;jettySize=auto;html=1;exitX=0.5;exitY=0;exitDx=0;exitDy=0;endArrow=block;endFill=0;dashed=1;" parent="1" source="Z7vZMawhTvA8cL5-oiGD-39" edge="1">
          <mxGeometry relative="1" as="geometry">
            <mxPoint x="2080" y="1400" as="targetPoint" />
            <Array as="points">
              <mxPoint x="1900" y="1450" />
              <mxPoint x="2080" y="1450" />
            </Array>
          </mxGeometry>
        </mxCell>
        <mxCell id="Z7vZMawhTvA8cL5-oiGD-39" value="DataSheetView" style="swimlane;fontStyle=1;childLayout=stackLayout;horizontal=1;startSize=26;fillColor=none;horizontalStack=0;resizeParent=1;resizeParentMax=0;resizeLast=0;collapsible=1;marginBottom=0;strokeWidth=2;" parent="1" vertex="1">
          <mxGeometry x="1720" y="1498" width="360" height="130" as="geometry" />
        </mxCell>
        <mxCell id="Z7vZMawhTvA8cL5-oiGD-60" value="- viewCount: Int" style="text;strokeColor=default;fillColor=none;align=left;verticalAlign=top;spacingLeft=4;spacingRight=4;overflow=hidden;rotatable=0;points=[[0,0.5],[1,0.5]];portConstraint=eastwest;fontStyle=1;strokeWidth=1;" parent="Z7vZMawhTvA8cL5-oiGD-39" vertex="1">
          <mxGeometry y="26" width="360" height="26" as="geometry" />
        </mxCell>
        <mxCell id="Z7vZMawhTvA8cL5-oiGD-41" value="+ DataSheetView(scoreRecord: ScoreRecord, viewCount: Int)" style="text;strokeColor=none;fillColor=none;align=left;verticalAlign=top;spacingLeft=4;spacingRight=4;overflow=hidden;rotatable=0;points=[[0,0.5],[1,0.5]];portConstraint=eastwest;fontStyle=1;strokeWidth=2;" parent="Z7vZMawhTvA8cL5-oiGD-39" vertex="1">
          <mxGeometry y="52" width="360" height="26" as="geometry" />
        </mxCell>
        <mxCell id="Z7vZMawhTvA8cL5-oiGD-44" value="+ update(): void" style="text;strokeColor=none;fillColor=none;align=left;verticalAlign=top;spacingLeft=4;spacingRight=4;overflow=hidden;rotatable=0;points=[[0,0.5],[1,0.5]];portConstraint=eastwest;fontStyle=1;strokeWidth=2;" parent="Z7vZMawhTvA8cL5-oiGD-39" vertex="1">
          <mxGeometry y="78" width="360" height="26" as="geometry" />
        </mxCell>
        <mxCell id="Z7vZMawhTvA8cL5-oiGD-42" value="- displayScores(record: List&lt;Integer&gt;, viewCount: Int): void" style="text;strokeColor=none;fillColor=none;align=left;verticalAlign=top;spacingLeft=4;spacingRight=4;overflow=hidden;rotatable=0;points=[[0,0.5],[1,0.5]];portConstraint=eastwest;fontStyle=1;strokeWidth=2;" parent="Z7vZMawhTvA8cL5-oiGD-39" vertex="1">
          <mxGeometry y="104" width="360" height="26" as="geometry" />
        </mxCell>
        <mxCell id="Z7vZMawhTvA8cL5-oiGD-51" style="edgeStyle=orthogonalEdgeStyle;rounded=0;orthogonalLoop=1;jettySize=auto;html=1;exitX=0.5;exitY=0;exitDx=0;exitDy=0;endArrow=block;endFill=0;dashed=1;" parent="1" source="Z7vZMawhTvA8cL5-oiGD-45" edge="1">
          <mxGeometry relative="1" as="geometry">
            <mxPoint x="2120" y="1400" as="targetPoint" />
            <mxPoint x="2300" y="1510" as="sourcePoint" />
            <Array as="points">
              <mxPoint x="2300" y="1450" />
              <mxPoint x="2120" y="1450" />
            </Array>
          </mxGeometry>
        </mxCell>
        <mxCell id="Z7vZMawhTvA8cL5-oiGD-45" value="MinMaxView" style="swimlane;fontStyle=1;childLayout=stackLayout;horizontal=1;startSize=26;fillColor=none;horizontalStack=0;resizeParent=1;resizeParentMax=0;resizeLast=0;collapsible=1;marginBottom=0;strokeWidth=2;" parent="1" vertex="1">
          <mxGeometry x="2120" y="1530" width="360" height="104" as="geometry" />
        </mxCell>
        <mxCell id="Z7vZMawhTvA8cL5-oiGD-47" value="+ MinMaxView(scoreRecord: ScoreRecord)" style="text;strokeColor=none;fillColor=none;align=left;verticalAlign=top;spacingLeft=4;spacingRight=4;overflow=hidden;rotatable=0;points=[[0,0.5],[1,0.5]];portConstraint=eastwest;fontStyle=1;strokeWidth=2;" parent="Z7vZMawhTvA8cL5-oiGD-45" vertex="1">
          <mxGeometry y="26" width="360" height="26" as="geometry" />
        </mxCell>
        <mxCell id="Z7vZMawhTvA8cL5-oiGD-48" value="+ update(): void" style="text;strokeColor=none;fillColor=none;align=left;verticalAlign=top;spacingLeft=4;spacingRight=4;overflow=hidden;rotatable=0;points=[[0,0.5],[1,0.5]];portConstraint=eastwest;fontStyle=1;strokeWidth=2;" parent="Z7vZMawhTvA8cL5-oiGD-45" vertex="1">
          <mxGeometry y="52" width="360" height="26" as="geometry" />
        </mxCell>
        <mxCell id="Z7vZMawhTvA8cL5-oiGD-49" value="- displayScores(record: List&lt;Integer&gt;): void" style="text;strokeColor=none;fillColor=none;align=left;verticalAlign=top;spacingLeft=4;spacingRight=4;overflow=hidden;rotatable=0;points=[[0,0.5],[1,0.5]];portConstraint=eastwest;fontStyle=1;strokeWidth=2;" parent="Z7vZMawhTvA8cL5-oiGD-45" vertex="1">
          <mxGeometry y="78" width="360" height="26" as="geometry" />
        </mxCell>
        <mxCell id="Z7vZMawhTvA8cL5-oiGD-53" value="- views" style="text;html=1;strokeColor=none;fillColor=none;align=center;verticalAlign=middle;whiteSpace=wrap;rounded=0;fontStyle=1;fontSize=11;" parent="1" vertex="1">
          <mxGeometry x="1960" y="1344" width="40" height="8" as="geometry" />
        </mxCell>
        <mxCell id="Z7vZMawhTvA8cL5-oiGD-55" value="0..*" style="text;html=1;strokeColor=none;fillColor=none;align=center;verticalAlign=middle;whiteSpace=wrap;rounded=0;fontStyle=1;fontSize=11;" parent="1" vertex="1">
          <mxGeometry x="1960" y="1366" width="40" height="8" as="geometry" />
        </mxCell>
        <mxCell id="Z7vZMawhTvA8cL5-oiGD-56" style="edgeStyle=orthogonalEdgeStyle;rounded=0;orthogonalLoop=1;jettySize=auto;html=1;exitX=0;exitY=0.5;exitDx=0;exitDy=0;entryX=1;entryY=0.5;entryDx=0;entryDy=0;fontSize=11;endArrow=open;endFill=0;" parent="1" source="Z7vZMawhTvA8cL5-oiGD-41" target="Z7vZMawhTvA8cL5-oiGD-25" edge="1">
          <mxGeometry relative="1" as="geometry">
            <Array as="points">
              <mxPoint x="1720" y="1580" />
              <mxPoint x="1660" y="1580" />
            </Array>
          </mxGeometry>
        </mxCell>
        <mxCell id="Z7vZMawhTvA8cL5-oiGD-57" style="edgeStyle=orthogonalEdgeStyle;rounded=0;orthogonalLoop=1;jettySize=auto;html=1;exitX=0;exitY=0.5;exitDx=0;exitDy=0;entryX=1;entryY=0.5;entryDx=0;entryDy=0;fontSize=11;endArrow=open;endFill=0;" parent="1" source="Z7vZMawhTvA8cL5-oiGD-47" target="Z7vZMawhTvA8cL5-oiGD-27" edge="1">
          <mxGeometry relative="1" as="geometry">
            <Array as="points">
              <mxPoint x="2100" y="1593" />
              <mxPoint x="2100" y="1700" />
              <mxPoint x="1700" y="1700" />
              <mxPoint x="1700" y="1633" />
            </Array>
          </mxGeometry>
        </mxCell>
        <mxCell id="Z7vZMawhTvA8cL5-oiGD-58" value="- scoreRecord" style="text;html=1;strokeColor=none;fillColor=none;align=center;verticalAlign=middle;whiteSpace=wrap;rounded=0;fontStyle=1;fontSize=11;" parent="1" vertex="1">
          <mxGeometry x="1610" y="1568" width="90" height="8" as="geometry" />
        </mxCell>
        <mxCell id="Z7vZMawhTvA8cL5-oiGD-59" value="- scoreRecord" style="text;html=1;strokeColor=none;fillColor=none;align=center;verticalAlign=middle;whiteSpace=wrap;rounded=0;fontStyle=1;fontSize=11;" parent="1" vertex="1">
          <mxGeometry x="1610" y="1620" width="90" height="8" as="geometry" />
        </mxCell>
        <mxCell id="_uDyZYfHJac7QDh6JOEq-1" value="ShippingDepartment" style="swimlane;fontStyle=1;childLayout=stackLayout;horizontal=1;startSize=26;fillColor=none;horizontalStack=0;resizeParent=1;resizeParentMax=0;resizeLast=0;collapsible=1;marginBottom=0;strokeColor=#000000;strokeWidth=1;" parent="1" vertex="1">
          <mxGeometry x="3390" y="2660" width="200" height="78" as="geometry" />
        </mxCell>
        <mxCell id="_uDyZYfHJac7QDh6JOEq-2" value="+ startShipping(Order order): void" style="text;strokeColor=none;fillColor=none;align=left;verticalAlign=top;spacingLeft=4;spacingRight=4;overflow=hidden;rotatable=0;points=[[0,0.5],[1,0.5]];portConstraint=eastwest;" parent="_uDyZYfHJac7QDh6JOEq-1" vertex="1">
          <mxGeometry y="26" width="200" height="26" as="geometry" />
        </mxCell>
        <mxCell id="_uDyZYfHJac7QDh6JOEq-3" value="+ stopShipping(Order order): void" style="text;strokeColor=none;fillColor=none;align=left;verticalAlign=top;spacingLeft=4;spacingRight=4;overflow=hidden;rotatable=0;points=[[0,0.5],[1,0.5]];portConstraint=eastwest;" parent="_uDyZYfHJac7QDh6JOEq-1" vertex="1">
          <mxGeometry y="52" width="200" height="26" as="geometry" />
        </mxCell>
        <mxCell id="_uDyZYfHJac7QDh6JOEq-5" value="BillingDepartment" style="swimlane;fontStyle=1;childLayout=stackLayout;horizontal=1;startSize=26;fillColor=none;horizontalStack=0;resizeParent=1;resizeParentMax=0;resizeLast=0;collapsible=1;marginBottom=0;strokeColor=#000000;strokeWidth=1;" parent="1" vertex="1">
          <mxGeometry x="3310" y="2752" width="280" height="78" as="geometry" />
        </mxCell>
        <mxCell id="_uDyZYfHJac7QDh6JOEq-6" value="+ makePayment(Order order, Int price):Boolean" style="text;strokeColor=none;fillColor=none;align=left;verticalAlign=top;spacingLeft=4;spacingRight=4;overflow=hidden;rotatable=0;points=[[0,0.5],[1,0.5]];portConstraint=eastwest;" parent="_uDyZYfHJac7QDh6JOEq-5" vertex="1">
          <mxGeometry y="26" width="280" height="26" as="geometry" />
        </mxCell>
        <mxCell id="_uDyZYfHJac7QDh6JOEq-7" value="+ refund(Order order): void" style="text;strokeColor=none;fillColor=none;align=left;verticalAlign=top;spacingLeft=4;spacingRight=4;overflow=hidden;rotatable=0;points=[[0,0.5],[1,0.5]];portConstraint=eastwest;" parent="_uDyZYfHJac7QDh6JOEq-5" vertex="1">
          <mxGeometry y="52" width="280" height="26" as="geometry" />
        </mxCell>
        <mxCell id="_uDyZYfHJac7QDh6JOEq-130" style="edgeStyle=orthogonalEdgeStyle;rounded=0;orthogonalLoop=1;jettySize=auto;html=1;exitX=0.25;exitY=1;exitDx=0;exitDy=0;entryX=0.875;entryY=0;entryDx=0;entryDy=0;entryPerimeter=0;endArrow=open;endFill=0;dashed=1;" parent="1" source="_uDyZYfHJac7QDh6JOEq-8" target="_uDyZYfHJac7QDh6JOEq-31" edge="1">
          <mxGeometry relative="1" as="geometry" />
        </mxCell>
        <mxCell id="_uDyZYfHJac7QDh6JOEq-8" value="OrderDepartment" style="swimlane;fontStyle=1;childLayout=stackLayout;horizontal=1;startSize=26;fillColor=none;horizontalStack=0;resizeParent=1;resizeParentMax=0;resizeLast=0;collapsible=1;marginBottom=0;strokeColor=#000000;strokeWidth=1;" parent="1" vertex="1">
          <mxGeometry x="3070" y="2850" width="520" height="78" as="geometry" />
        </mxCell>
        <mxCell id="_uDyZYfHJac7QDh6JOEq-9" value="+ makeOrder(Customer customer, String item, int quantity, boolean canBeCancelld): Order" style="text;strokeColor=none;fillColor=none;align=left;verticalAlign=top;spacingLeft=4;spacingRight=4;overflow=hidden;rotatable=0;points=[[0,0.5],[1,0.5]];portConstraint=eastwest;" parent="_uDyZYfHJac7QDh6JOEq-8" vertex="1">
          <mxGeometry y="26" width="520" height="26" as="geometry" />
        </mxCell>
        <mxCell id="_uDyZYfHJac7QDh6JOEq-10" value="+ cancelOrder(Order order): Boolean" style="text;strokeColor=none;fillColor=none;align=left;verticalAlign=top;spacingLeft=4;spacingRight=4;overflow=hidden;rotatable=0;points=[[0,0.5],[1,0.5]];portConstraint=eastwest;" parent="_uDyZYfHJac7QDh6JOEq-8" vertex="1">
          <mxGeometry y="52" width="520" height="26" as="geometry" />
        </mxCell>
        <mxCell id="_uDyZYfHJac7QDh6JOEq-126" style="edgeStyle=orthogonalEdgeStyle;rounded=0;orthogonalLoop=1;jettySize=auto;html=1;exitX=0.5;exitY=1;exitDx=0;exitDy=0;entryX=0;entryY=0.5;entryDx=0;entryDy=0;endArrow=open;endFill=0;" parent="1" source="_uDyZYfHJac7QDh6JOEq-11" target="_uDyZYfHJac7QDh6JOEq-33" edge="1">
          <mxGeometry relative="1" as="geometry" />
        </mxCell>
        <mxCell id="_uDyZYfHJac7QDh6JOEq-11" value="Order" style="swimlane;fontStyle=1;childLayout=stackLayout;horizontal=1;startSize=26;fillColor=none;horizontalStack=0;resizeParent=1;resizeParentMax=0;resizeLast=0;collapsible=1;marginBottom=0;strokeColor=#000000;strokeWidth=1;" parent="1" vertex="1">
          <mxGeometry x="2520" y="2439" width="440" height="520" as="geometry" />
        </mxCell>
        <mxCell id="_uDyZYfHJac7QDh6JOEq-12" value="- customer: Customer" style="text;strokeColor=none;fillColor=none;align=left;verticalAlign=top;spacingLeft=4;spacingRight=4;overflow=hidden;rotatable=0;points=[[0,0.5],[1,0.5]];portConstraint=eastwest;" parent="_uDyZYfHJac7QDh6JOEq-11" vertex="1">
          <mxGeometry y="26" width="440" height="26" as="geometry" />
        </mxCell>
        <mxCell id="_uDyZYfHJac7QDh6JOEq-14" value="- item: String" style="text;strokeColor=none;fillColor=none;align=left;verticalAlign=top;spacingLeft=4;spacingRight=4;overflow=hidden;rotatable=0;points=[[0,0.5],[1,0.5]];portConstraint=eastwest;" parent="_uDyZYfHJac7QDh6JOEq-11" vertex="1">
          <mxGeometry y="52" width="440" height="26" as="geometry" />
        </mxCell>
        <mxCell id="_uDyZYfHJac7QDh6JOEq-15" value="- quantity: Int" style="text;strokeColor=none;fillColor=none;align=left;verticalAlign=top;spacingLeft=4;spacingRight=4;overflow=hidden;rotatable=0;points=[[0,0.5],[1,0.5]];portConstraint=eastwest;" parent="_uDyZYfHJac7QDh6JOEq-11" vertex="1">
          <mxGeometry y="78" width="440" height="26" as="geometry" />
        </mxCell>
        <mxCell id="_uDyZYfHJac7QDh6JOEq-13" value="- canBeCancelled: Boolean" style="text;strokeColor=none;fillColor=none;align=left;verticalAlign=top;spacingLeft=4;spacingRight=4;overflow=hidden;rotatable=0;points=[[0,0.5],[1,0.5]];portConstraint=eastwest;" parent="_uDyZYfHJac7QDh6JOEq-11" vertex="1">
          <mxGeometry y="104" width="440" height="26" as="geometry" />
        </mxCell>
        <mxCell id="_uDyZYfHJac7QDh6JOEq-16" value="- item: String" style="text;strokeColor=none;fillColor=none;align=left;verticalAlign=top;spacingLeft=4;spacingRight=4;overflow=hidden;rotatable=0;points=[[0,0.5],[1,0.5]];portConstraint=eastwest;" parent="_uDyZYfHJac7QDh6JOEq-11" vertex="1">
          <mxGeometry y="130" width="440" height="26" as="geometry" />
        </mxCell>
        <mxCell id="_uDyZYfHJac7QDh6JOEq-17" value="- paid: Boolean" style="text;strokeColor=none;fillColor=none;align=left;verticalAlign=top;spacingLeft=4;spacingRight=4;overflow=hidden;rotatable=0;points=[[0,0.5],[1,0.5]];portConstraint=eastwest;" parent="_uDyZYfHJac7QDh6JOEq-11" vertex="1">
          <mxGeometry y="156" width="440" height="26" as="geometry" />
        </mxCell>
        <mxCell id="_uDyZYfHJac7QDh6JOEq-19" value="- pending: Boolean" style="text;strokeColor=none;fillColor=none;align=left;verticalAlign=top;spacingLeft=4;spacingRight=4;overflow=hidden;rotatable=0;points=[[0,0.5],[1,0.5]];portConstraint=eastwest;" parent="_uDyZYfHJac7QDh6JOEq-11" vertex="1">
          <mxGeometry y="182" width="440" height="26" as="geometry" />
        </mxCell>
        <mxCell id="_uDyZYfHJac7QDh6JOEq-18" value="- canceled: Boolean" style="text;strokeColor=none;fillColor=none;align=left;verticalAlign=top;spacingLeft=4;spacingRight=4;overflow=hidden;rotatable=0;points=[[0,0.5],[1,0.5]];portConstraint=eastwest;" parent="_uDyZYfHJac7QDh6JOEq-11" vertex="1">
          <mxGeometry y="208" width="440" height="26" as="geometry" />
        </mxCell>
        <mxCell id="_uDyZYfHJac7QDh6JOEq-42" value="+ Order(Customer customer, String item, Int quantity, Boolean canBeCancelled)" style="text;strokeColor=none;fillColor=none;align=left;verticalAlign=top;spacingLeft=4;spacingRight=4;overflow=hidden;rotatable=0;points=[[0,0.5],[1,0.5]];portConstraint=eastwest;" parent="_uDyZYfHJac7QDh6JOEq-11" vertex="1">
          <mxGeometry y="234" width="440" height="26" as="geometry" />
        </mxCell>
        <mxCell id="_uDyZYfHJac7QDh6JOEq-21" value="+ isPaid(): Boolean" style="text;strokeColor=none;fillColor=none;align=left;verticalAlign=top;spacingLeft=4;spacingRight=4;overflow=hidden;rotatable=0;points=[[0,0.5],[1,0.5]];portConstraint=eastwest;" parent="_uDyZYfHJac7QDh6JOEq-11" vertex="1">
          <mxGeometry y="260" width="440" height="26" as="geometry" />
        </mxCell>
        <mxCell id="_uDyZYfHJac7QDh6JOEq-20" value="+ setPaid(Boolean paid): void " style="text;strokeColor=none;fillColor=none;align=left;verticalAlign=top;spacingLeft=4;spacingRight=4;overflow=hidden;rotatable=0;points=[[0,0.5],[1,0.5]];portConstraint=eastwest;" parent="_uDyZYfHJac7QDh6JOEq-11" vertex="1">
          <mxGeometry y="286" width="440" height="26" as="geometry" />
        </mxCell>
        <mxCell id="_uDyZYfHJac7QDh6JOEq-23" value="+ isPending(): Boolean" style="text;strokeColor=none;fillColor=none;align=left;verticalAlign=top;spacingLeft=4;spacingRight=4;overflow=hidden;rotatable=0;points=[[0,0.5],[1,0.5]];portConstraint=eastwest;" parent="_uDyZYfHJac7QDh6JOEq-11" vertex="1">
          <mxGeometry y="312" width="440" height="26" as="geometry" />
        </mxCell>
        <mxCell id="_uDyZYfHJac7QDh6JOEq-22" value="+ setPending(Boolean pending): void" style="text;strokeColor=none;fillColor=none;align=left;verticalAlign=top;spacingLeft=4;spacingRight=4;overflow=hidden;rotatable=0;points=[[0,0.5],[1,0.5]];portConstraint=eastwest;" parent="_uDyZYfHJac7QDh6JOEq-11" vertex="1">
          <mxGeometry y="338" width="440" height="26" as="geometry" />
        </mxCell>
        <mxCell id="_uDyZYfHJac7QDh6JOEq-24" value="+ getPrice(): Int" style="text;strokeColor=none;fillColor=none;align=left;verticalAlign=top;spacingLeft=4;spacingRight=4;overflow=hidden;rotatable=0;points=[[0,0.5],[1,0.5]];portConstraint=eastwest;" parent="_uDyZYfHJac7QDh6JOEq-11" vertex="1">
          <mxGeometry y="364" width="440" height="26" as="geometry" />
        </mxCell>
        <mxCell id="_uDyZYfHJac7QDh6JOEq-25" value="+ getQuantity(): Int" style="text;strokeColor=none;fillColor=none;align=left;verticalAlign=top;spacingLeft=4;spacingRight=4;overflow=hidden;rotatable=0;points=[[0,0.5],[1,0.5]];portConstraint=eastwest;" parent="_uDyZYfHJac7QDh6JOEq-11" vertex="1">
          <mxGeometry y="390" width="440" height="26" as="geometry" />
        </mxCell>
        <mxCell id="_uDyZYfHJac7QDh6JOEq-26" value="+ getItem(): String" style="text;strokeColor=none;fillColor=none;align=left;verticalAlign=top;spacingLeft=4;spacingRight=4;overflow=hidden;rotatable=0;points=[[0,0.5],[1,0.5]];portConstraint=eastwest;" parent="_uDyZYfHJac7QDh6JOEq-11" vertex="1">
          <mxGeometry y="416" width="440" height="26" as="geometry" />
        </mxCell>
        <mxCell id="_uDyZYfHJac7QDh6JOEq-29" value="+ isCancelld(): Boolean" style="text;strokeColor=none;fillColor=none;align=left;verticalAlign=top;spacingLeft=4;spacingRight=4;overflow=hidden;rotatable=0;points=[[0,0.5],[1,0.5]];portConstraint=eastwest;" parent="_uDyZYfHJac7QDh6JOEq-11" vertex="1">
          <mxGeometry y="442" width="440" height="26" as="geometry" />
        </mxCell>
        <mxCell id="_uDyZYfHJac7QDh6JOEq-28" value="+ setCancelled(Boolean cancelled): void" style="text;strokeColor=none;fillColor=none;align=left;verticalAlign=top;spacingLeft=4;spacingRight=4;overflow=hidden;rotatable=0;points=[[0,0.5],[1,0.5]];portConstraint=eastwest;" parent="_uDyZYfHJac7QDh6JOEq-11" vertex="1">
          <mxGeometry y="468" width="440" height="26" as="geometry" />
        </mxCell>
        <mxCell id="_uDyZYfHJac7QDh6JOEq-30" value="+ isCanBeCancelled(): Boolean" style="text;strokeColor=none;fillColor=none;align=left;verticalAlign=top;spacingLeft=4;spacingRight=4;overflow=hidden;rotatable=0;points=[[0,0.5],[1,0.5]];portConstraint=eastwest;" parent="_uDyZYfHJac7QDh6JOEq-11" vertex="1">
          <mxGeometry y="494" width="440" height="26" as="geometry" />
        </mxCell>
        <mxCell id="_uDyZYfHJac7QDh6JOEq-31" value="Customer" style="swimlane;fontStyle=1;childLayout=stackLayout;horizontal=1;startSize=26;fillColor=none;horizontalStack=0;resizeParent=1;resizeParentMax=0;resizeLast=0;collapsible=1;marginBottom=0;strokeColor=#000000;strokeWidth=1;" parent="1" vertex="1">
          <mxGeometry x="2920" y="2980" width="320" height="286" as="geometry" />
        </mxCell>
        <mxCell id="_uDyZYfHJac7QDh6JOEq-32" value="- name: String" style="text;strokeColor=none;fillColor=none;align=left;verticalAlign=top;spacingLeft=4;spacingRight=4;overflow=hidden;rotatable=0;points=[[0,0.5],[1,0.5]];portConstraint=eastwest;" parent="_uDyZYfHJac7QDh6JOEq-31" vertex="1">
          <mxGeometry y="26" width="320" height="26" as="geometry" />
        </mxCell>
        <mxCell id="_uDyZYfHJac7QDh6JOEq-34" value="- address: String" style="text;strokeColor=none;fillColor=none;align=left;verticalAlign=top;spacingLeft=4;spacingRight=4;overflow=hidden;rotatable=0;points=[[0,0.5],[1,0.5]];portConstraint=eastwest;" parent="_uDyZYfHJac7QDh6JOEq-31" vertex="1">
          <mxGeometry y="52" width="320" height="26" as="geometry" />
        </mxCell>
        <mxCell id="_uDyZYfHJac7QDh6JOEq-33" value="- balance: Int" style="text;strokeColor=none;fillColor=none;align=left;verticalAlign=top;spacingLeft=4;spacingRight=4;overflow=hidden;rotatable=0;points=[[0,0.5],[1,0.5]];portConstraint=eastwest;" parent="_uDyZYfHJac7QDh6JOEq-31" vertex="1">
          <mxGeometry y="78" width="320" height="26" as="geometry" />
        </mxCell>
        <mxCell id="_uDyZYfHJac7QDh6JOEq-41" value="+ Customer(String name, String address, Int balance)" style="text;strokeColor=none;fillColor=none;align=left;verticalAlign=top;spacingLeft=4;spacingRight=4;overflow=hidden;rotatable=0;points=[[0,0.5],[1,0.5]];portConstraint=eastwest;" parent="_uDyZYfHJac7QDh6JOEq-31" vertex="1">
          <mxGeometry y="104" width="320" height="26" as="geometry" />
        </mxCell>
        <mxCell id="_uDyZYfHJac7QDh6JOEq-35" value="+ getName(): String" style="text;strokeColor=none;fillColor=none;align=left;verticalAlign=top;spacingLeft=4;spacingRight=4;overflow=hidden;rotatable=0;points=[[0,0.5],[1,0.5]];portConstraint=eastwest;" parent="_uDyZYfHJac7QDh6JOEq-31" vertex="1">
          <mxGeometry y="130" width="320" height="26" as="geometry" />
        </mxCell>
        <mxCell id="_uDyZYfHJac7QDh6JOEq-36" value="+ setName(String name): void" style="text;strokeColor=none;fillColor=none;align=left;verticalAlign=top;spacingLeft=4;spacingRight=4;overflow=hidden;rotatable=0;points=[[0,0.5],[1,0.5]];portConstraint=eastwest;" parent="_uDyZYfHJac7QDh6JOEq-31" vertex="1">
          <mxGeometry y="156" width="320" height="26" as="geometry" />
        </mxCell>
        <mxCell id="_uDyZYfHJac7QDh6JOEq-37" value="+ getAddress(): String" style="text;strokeColor=none;fillColor=none;align=left;verticalAlign=top;spacingLeft=4;spacingRight=4;overflow=hidden;rotatable=0;points=[[0,0.5],[1,0.5]];portConstraint=eastwest;" parent="_uDyZYfHJac7QDh6JOEq-31" vertex="1">
          <mxGeometry y="182" width="320" height="26" as="geometry" />
        </mxCell>
        <mxCell id="_uDyZYfHJac7QDh6JOEq-38" value="+ setAddress(String address): void" style="text;strokeColor=none;fillColor=none;align=left;verticalAlign=top;spacingLeft=4;spacingRight=4;overflow=hidden;rotatable=0;points=[[0,0.5],[1,0.5]];portConstraint=eastwest;" parent="_uDyZYfHJac7QDh6JOEq-31" vertex="1">
          <mxGeometry y="208" width="320" height="26" as="geometry" />
        </mxCell>
        <mxCell id="_uDyZYfHJac7QDh6JOEq-39" value="+ getBalance(): Int" style="text;strokeColor=none;fillColor=none;align=left;verticalAlign=top;spacingLeft=4;spacingRight=4;overflow=hidden;rotatable=0;points=[[0,0.5],[1,0.5]];portConstraint=eastwest;" parent="_uDyZYfHJac7QDh6JOEq-31" vertex="1">
          <mxGeometry y="234" width="320" height="26" as="geometry" />
        </mxCell>
        <mxCell id="_uDyZYfHJac7QDh6JOEq-40" value="+ setBalance(Int balance): void" style="text;strokeColor=none;fillColor=none;align=left;verticalAlign=top;spacingLeft=4;spacingRight=4;overflow=hidden;rotatable=0;points=[[0,0.5],[1,0.5]];portConstraint=eastwest;" parent="_uDyZYfHJac7QDh6JOEq-31" vertex="1">
          <mxGeometry y="260" width="320" height="26" as="geometry" />
        </mxCell>
        <mxCell id="_uDyZYfHJac7QDh6JOEq-43" value="FacadeDepartment" style="swimlane;fontStyle=1;childLayout=stackLayout;horizontal=1;startSize=26;fillColor=none;horizontalStack=0;resizeParent=1;resizeParentMax=0;resizeLast=0;collapsible=1;marginBottom=0;strokeColor=#000000;strokeWidth=1;" parent="1" vertex="1">
          <mxGeometry x="3230" y="2330" width="360" height="260" as="geometry" />
        </mxCell>
        <mxCell id="_uDyZYfHJac7QDh6JOEq-44" value="- orderDepartment: OrderDepartment" style="text;strokeColor=none;fillColor=none;align=left;verticalAlign=top;spacingLeft=4;spacingRight=4;overflow=hidden;rotatable=0;points=[[0,0.5],[1,0.5]];portConstraint=eastwest;" parent="_uDyZYfHJac7QDh6JOEq-43" vertex="1">
          <mxGeometry y="26" width="360" height="26" as="geometry" />
        </mxCell>
        <mxCell id="_uDyZYfHJac7QDh6JOEq-45" value="- billingDepartment: BillingDepartment" style="text;strokeColor=none;fillColor=none;align=left;verticalAlign=top;spacingLeft=4;spacingRight=4;overflow=hidden;rotatable=0;points=[[0,0.5],[1,0.5]];portConstraint=eastwest;" parent="_uDyZYfHJac7QDh6JOEq-43" vertex="1">
          <mxGeometry y="52" width="360" height="26" as="geometry" />
        </mxCell>
        <mxCell id="_uDyZYfHJac7QDh6JOEq-49" value="- shippingDepartment: ShippingDepartment" style="text;strokeColor=none;fillColor=none;align=left;verticalAlign=top;spacingLeft=4;spacingRight=4;overflow=hidden;rotatable=0;points=[[0,0.5],[1,0.5]];portConstraint=eastwest;" parent="_uDyZYfHJac7QDh6JOEq-43" vertex="1">
          <mxGeometry y="78" width="360" height="26" as="geometry" />
        </mxCell>
        <mxCell id="_uDyZYfHJac7QDh6JOEq-50" value="- scanner: Scanner" style="text;strokeColor=none;fillColor=none;align=left;verticalAlign=top;spacingLeft=4;spacingRight=4;overflow=hidden;rotatable=0;points=[[0,0.5],[1,0.5]];portConstraint=eastwest;" parent="_uDyZYfHJac7QDh6JOEq-43" vertex="1">
          <mxGeometry y="104" width="360" height="26" as="geometry" />
        </mxCell>
        <mxCell id="_uDyZYfHJac7QDh6JOEq-52" value="- customer1: Customer" style="text;strokeColor=none;fillColor=none;align=left;verticalAlign=top;spacingLeft=4;spacingRight=4;overflow=hidden;rotatable=0;points=[[0,0.5],[1,0.5]];portConstraint=eastwest;" parent="_uDyZYfHJac7QDh6JOEq-43" vertex="1">
          <mxGeometry y="130" width="360" height="26" as="geometry" />
        </mxCell>
        <mxCell id="_uDyZYfHJac7QDh6JOEq-51" value="- order: Order" style="text;strokeColor=none;fillColor=none;align=left;verticalAlign=top;spacingLeft=4;spacingRight=4;overflow=hidden;rotatable=0;points=[[0,0.5],[1,0.5]];portConstraint=eastwest;" parent="_uDyZYfHJac7QDh6JOEq-43" vertex="1">
          <mxGeometry y="156" width="360" height="26" as="geometry" />
        </mxCell>
        <mxCell id="_uDyZYfHJac7QDh6JOEq-54" value="+ FacadeDepartment(String name, String address, Int balance)" style="text;strokeColor=none;fillColor=none;align=left;verticalAlign=top;spacingLeft=4;spacingRight=4;overflow=hidden;rotatable=0;points=[[0,0.5],[1,0.5]];portConstraint=eastwest;" parent="_uDyZYfHJac7QDh6JOEq-43" vertex="1">
          <mxGeometry y="182" width="360" height="26" as="geometry" />
        </mxCell>
        <mxCell id="_uDyZYfHJac7QDh6JOEq-53" value="+ makeOrder(): void" style="text;strokeColor=none;fillColor=none;align=left;verticalAlign=top;spacingLeft=4;spacingRight=4;overflow=hidden;rotatable=0;points=[[0,0.5],[1,0.5]];portConstraint=eastwest;" parent="_uDyZYfHJac7QDh6JOEq-43" vertex="1">
          <mxGeometry y="208" width="360" height="26" as="geometry" />
        </mxCell>
        <mxCell id="_uDyZYfHJac7QDh6JOEq-55" value="+ cancelOrder(): void" style="text;strokeColor=none;fillColor=none;align=left;verticalAlign=top;spacingLeft=4;spacingRight=4;overflow=hidden;rotatable=0;points=[[0,0.5],[1,0.5]];portConstraint=eastwest;" parent="_uDyZYfHJac7QDh6JOEq-43" vertex="1">
          <mxGeometry y="234" width="360" height="26" as="geometry" />
        </mxCell>
        <mxCell id="_uDyZYfHJac7QDh6JOEq-75" style="edgeStyle=orthogonalEdgeStyle;rounded=0;orthogonalLoop=1;jettySize=auto;html=1;exitX=0.5;exitY=1;exitDx=0;exitDy=0;entryX=0.5;entryY=0;entryDx=0;entryDy=0;endArrow=open;endFill=0;" parent="1" source="_uDyZYfHJac7QDh6JOEq-66" target="_uDyZYfHJac7QDh6JOEq-43" edge="1">
          <mxGeometry relative="1" as="geometry" />
        </mxCell>
        <mxCell id="_uDyZYfHJac7QDh6JOEq-66" value="Client" style="swimlane;fontStyle=1;childLayout=stackLayout;horizontal=1;startSize=26;fillColor=none;horizontalStack=0;resizeParent=1;resizeParentMax=0;resizeLast=0;collapsible=1;marginBottom=0;strokeColor=#000000;strokeWidth=1;" parent="1" vertex="1">
          <mxGeometry x="3290" y="2130" width="240" height="104" as="geometry" />
        </mxCell>
        <mxCell id="_uDyZYfHJac7QDh6JOEq-67" value="- facadeDepartment: FacadeDepartment" style="text;strokeColor=none;fillColor=none;align=left;verticalAlign=top;spacingLeft=4;spacingRight=4;overflow=hidden;rotatable=0;points=[[0,0.5],[1,0.5]];portConstraint=eastwest;" parent="_uDyZYfHJac7QDh6JOEq-66" vertex="1">
          <mxGeometry y="26" width="240" height="26" as="geometry" />
        </mxCell>
        <mxCell id="_uDyZYfHJac7QDh6JOEq-69" value="+ makeOrder(): void" style="text;strokeColor=none;fillColor=none;align=left;verticalAlign=top;spacingLeft=4;spacingRight=4;overflow=hidden;rotatable=0;points=[[0,0.5],[1,0.5]];portConstraint=eastwest;" parent="_uDyZYfHJac7QDh6JOEq-66" vertex="1">
          <mxGeometry y="52" width="240" height="26" as="geometry" />
        </mxCell>
        <mxCell id="_uDyZYfHJac7QDh6JOEq-68" value="+ cancelOrder(): void" style="text;strokeColor=none;fillColor=none;align=left;verticalAlign=top;spacingLeft=4;spacingRight=4;overflow=hidden;rotatable=0;points=[[0,0.5],[1,0.5]];portConstraint=eastwest;" parent="_uDyZYfHJac7QDh6JOEq-66" vertex="1">
          <mxGeometry y="78" width="240" height="26" as="geometry" />
        </mxCell>
        <mxCell id="_uDyZYfHJac7QDh6JOEq-111" style="edgeStyle=orthogonalEdgeStyle;rounded=0;orthogonalLoop=1;jettySize=auto;html=1;exitX=1;exitY=0.5;exitDx=0;exitDy=0;entryX=1;entryY=0.5;entryDx=0;entryDy=0;endArrow=open;endFill=0;" parent="1" source="_uDyZYfHJac7QDh6JOEq-54" target="_uDyZYfHJac7QDh6JOEq-2" edge="1">
          <mxGeometry relative="1" as="geometry" />
        </mxCell>
        <mxCell id="_uDyZYfHJac7QDh6JOEq-112" style="edgeStyle=orthogonalEdgeStyle;rounded=0;orthogonalLoop=1;jettySize=auto;html=1;exitX=1;exitY=0.5;exitDx=0;exitDy=0;entryX=1;entryY=0.5;entryDx=0;entryDy=0;endArrow=open;endFill=0;" parent="1" source="_uDyZYfHJac7QDh6JOEq-51" target="_uDyZYfHJac7QDh6JOEq-6" edge="1">
          <mxGeometry relative="1" as="geometry">
            <Array as="points">
              <mxPoint x="3620" y="2499" />
              <mxPoint x="3620" y="2791" />
            </Array>
          </mxGeometry>
        </mxCell>
        <mxCell id="_uDyZYfHJac7QDh6JOEq-113" style="edgeStyle=orthogonalEdgeStyle;rounded=0;orthogonalLoop=1;jettySize=auto;html=1;exitX=1;exitY=0.5;exitDx=0;exitDy=0;entryX=1;entryY=0.5;entryDx=0;entryDy=0;endArrow=open;endFill=0;" parent="1" source="_uDyZYfHJac7QDh6JOEq-52" target="_uDyZYfHJac7QDh6JOEq-9" edge="1">
          <mxGeometry relative="1" as="geometry">
            <Array as="points">
              <mxPoint x="3700" y="2473" />
              <mxPoint x="3700" y="2889" />
            </Array>
          </mxGeometry>
        </mxCell>
        <mxCell id="_uDyZYfHJac7QDh6JOEq-116" value="" style="endArrow=open;html=1;rounded=0;exitX=0;exitY=0.5;exitDx=0;exitDy=0;dashed=1;endFill=0;" parent="1" source="_uDyZYfHJac7QDh6JOEq-2" edge="1">
          <mxGeometry width="50" height="50" relative="1" as="geometry">
            <mxPoint x="3430" y="2698.88" as="sourcePoint" />
            <mxPoint x="2959.767441860465" y="2698.88" as="targetPoint" />
          </mxGeometry>
        </mxCell>
        <mxCell id="_uDyZYfHJac7QDh6JOEq-121" value="" style="endArrow=open;html=1;rounded=0;jumpStyle=arc;dashed=1;endFill=0;" parent="1" edge="1">
          <mxGeometry width="50" height="50" relative="1" as="geometry">
            <mxPoint x="3310" y="2810" as="sourcePoint" />
            <mxPoint x="2960" y="2810" as="targetPoint" />
          </mxGeometry>
        </mxCell>
        <mxCell id="_uDyZYfHJac7QDh6JOEq-122" value="" style="endArrow=open;html=1;rounded=0;jumpStyle=arc;dashed=1;endFill=0;" parent="1" edge="1">
          <mxGeometry width="50" height="50" relative="1" as="geometry">
            <mxPoint x="3070" y="2890" as="sourcePoint" />
            <mxPoint x="2960" y="2890" as="targetPoint" />
          </mxGeometry>
        </mxCell>
        <mxCell id="_uDyZYfHJac7QDh6JOEq-123" style="edgeStyle=orthogonalEdgeStyle;rounded=0;orthogonalLoop=1;jettySize=auto;html=1;exitX=1;exitY=0.5;exitDx=0;exitDy=0;entryX=1;entryY=0.5;entryDx=0;entryDy=0;endArrow=open;endFill=0;" parent="1" source="_uDyZYfHJac7QDh6JOEq-50" target="_uDyZYfHJac7QDh6JOEq-34" edge="1">
          <mxGeometry relative="1" as="geometry">
            <Array as="points">
              <mxPoint x="3710" y="2447" />
              <mxPoint x="3710" y="3045" />
            </Array>
          </mxGeometry>
        </mxCell>
        <mxCell id="_uDyZYfHJac7QDh6JOEq-125" value="" style="endArrow=open;html=1;rounded=0;endFill=0;" parent="1" edge="1">
          <mxGeometry width="50" height="50" relative="1" as="geometry">
            <mxPoint x="3230" y="2500" as="sourcePoint" />
            <mxPoint x="2960" y="2500.24" as="targetPoint" />
          </mxGeometry>
        </mxCell>
        <mxCell id="_uDyZYfHJac7QDh6JOEq-127" value="customer" style="text;html=1;strokeColor=none;fillColor=none;align=center;verticalAlign=middle;whiteSpace=wrap;rounded=0;" parent="1" vertex="1">
          <mxGeometry x="2850" y="3050" width="60" height="20" as="geometry" />
        </mxCell>
        <mxCell id="_uDyZYfHJac7QDh6JOEq-128" value="customer1" style="text;html=1;strokeColor=none;fillColor=none;align=center;verticalAlign=middle;whiteSpace=wrap;rounded=0;" parent="1" vertex="1">
          <mxGeometry x="3250" y="3022" width="60" height="20" as="geometry" />
        </mxCell>
        <mxCell id="_uDyZYfHJac7QDh6JOEq-131" value="shippingDepartment" style="text;html=1;strokeColor=none;fillColor=none;align=center;verticalAlign=middle;whiteSpace=wrap;rounded=0;" parent="1" vertex="1">
          <mxGeometry x="3520" y="2640" width="60" height="20" as="geometry" />
        </mxCell>
        <mxCell id="_uDyZYfHJac7QDh6JOEq-132" value="billingDepartment" style="text;html=1;strokeColor=none;fillColor=none;align=center;verticalAlign=middle;whiteSpace=wrap;rounded=0;" parent="1" vertex="1">
          <mxGeometry x="3610" y="2796" width="60" height="20" as="geometry" />
        </mxCell>
        <mxCell id="_uDyZYfHJac7QDh6JOEq-133" value="orderDepartment" style="text;html=1;strokeColor=none;fillColor=none;align=center;verticalAlign=middle;whiteSpace=wrap;rounded=0;" parent="1" vertex="1">
          <mxGeometry x="3610" y="2890" width="60" height="20" as="geometry" />
        </mxCell>
        <mxCell id="_uDyZYfHJac7QDh6JOEq-134" value="facadeDepartment" style="text;html=1;strokeColor=none;fillColor=none;align=center;verticalAlign=middle;whiteSpace=wrap;rounded=0;" parent="1" vertex="1">
          <mxGeometry x="3440" y="2310" width="60" height="20" as="geometry" />
        </mxCell>
        <mxCell id="_uDyZYfHJac7QDh6JOEq-135" value="order" style="text;html=1;strokeColor=none;fillColor=none;align=center;verticalAlign=middle;whiteSpace=wrap;rounded=0;" parent="1" vertex="1">
          <mxGeometry x="2960" y="2480" width="60" height="20" as="geometry" />
        </mxCell>
        <mxCell id="V8qR7yP_6RgvKTzQbs4i-1" value="User Requirements" style="rounded=0;whiteSpace=wrap;html=1;fontStyle=1;fontSize=24;strokeWidth=2;" parent="1" vertex="1">
          <mxGeometry x="2800" y="680" width="200" height="80" as="geometry" />
        </mxCell>
        <mxCell id="V8qR7yP_6RgvKTzQbs4i-2" value="Requriement Specification" style="rounded=0;whiteSpace=wrap;html=1;fontStyle=1;fontSize=24;strokeWidth=2;" parent="1" vertex="1">
          <mxGeometry x="2840" y="800" width="200" height="80" as="geometry" />
        </mxCell>
        <mxCell id="V8qR7yP_6RgvKTzQbs4i-3" value="Architecture Design" style="rounded=0;whiteSpace=wrap;html=1;fontStyle=1;fontSize=24;strokeWidth=2;" parent="1" vertex="1">
          <mxGeometry x="2880" y="920" width="200" height="80" as="geometry" />
        </mxCell>
        <mxCell id="V8qR7yP_6RgvKTzQbs4i-4" value="Detailed Design" style="rounded=0;whiteSpace=wrap;html=1;fontStyle=1;fontSize=24;strokeWidth=2;" parent="1" vertex="1">
          <mxGeometry x="2920" y="1040" width="200" height="80" as="geometry" />
        </mxCell>
        <mxCell id="V8qR7yP_6RgvKTzQbs4i-6" value="Acceptance Testing" style="rounded=0;whiteSpace=wrap;html=1;fontStyle=1;fontSize=24;strokeWidth=2;" parent="1" vertex="1">
          <mxGeometry x="3360" y="680" width="200" height="80" as="geometry" />
        </mxCell>
        <mxCell id="V8qR7yP_6RgvKTzQbs4i-8" value="System Testing" style="rounded=0;whiteSpace=wrap;html=1;fontStyle=1;fontSize=24;strokeWidth=2;" parent="1" vertex="1">
          <mxGeometry x="3320" y="800" width="200" height="80" as="geometry" />
        </mxCell>
        <mxCell id="V8qR7yP_6RgvKTzQbs4i-9" value="Integration Testing" style="rounded=0;whiteSpace=wrap;html=1;fontStyle=1;fontSize=24;strokeWidth=2;" parent="1" vertex="1">
          <mxGeometry x="3280" y="920" width="200" height="80" as="geometry" />
        </mxCell>
        <mxCell id="V8qR7yP_6RgvKTzQbs4i-10" value="Unit Testing" style="rounded=0;whiteSpace=wrap;html=1;fontStyle=1;fontSize=24;strokeWidth=2;" parent="1" vertex="1">
          <mxGeometry x="3240" y="1040" width="200" height="80" as="geometry" />
        </mxCell>
        <mxCell id="V8qR7yP_6RgvKTzQbs4i-11" value="" style="shape=flexArrow;endArrow=classic;startArrow=classic;html=1;rounded=0;strokeWidth=2;" parent="1" edge="1">
          <mxGeometry width="100" height="100" relative="1" as="geometry">
            <mxPoint x="3130" y="1079" as="sourcePoint" />
            <mxPoint x="3230" y="1079" as="targetPoint" />
          </mxGeometry>
        </mxCell>
        <mxCell id="V8qR7yP_6RgvKTzQbs4i-12" value="" style="shape=flexArrow;endArrow=classic;startArrow=classic;html=1;rounded=0;strokeWidth=2;" parent="1" edge="1">
          <mxGeometry width="100" height="100" relative="1" as="geometry">
            <mxPoint x="3090" y="960" as="sourcePoint" />
            <mxPoint x="3270" y="960" as="targetPoint" />
          </mxGeometry>
        </mxCell>
        <mxCell id="V8qR7yP_6RgvKTzQbs4i-13" value="" style="shape=flexArrow;endArrow=classic;startArrow=classic;html=1;rounded=0;strokeWidth=2;" parent="1" edge="1">
          <mxGeometry width="100" height="100" relative="1" as="geometry">
            <mxPoint x="3050" y="840" as="sourcePoint" />
            <mxPoint x="3310" y="840" as="targetPoint" />
          </mxGeometry>
        </mxCell>
        <mxCell id="V8qR7yP_6RgvKTzQbs4i-14" value="" style="shape=flexArrow;endArrow=classic;startArrow=classic;html=1;rounded=0;strokeWidth=2;" parent="1" edge="1">
          <mxGeometry width="100" height="100" relative="1" as="geometry">
            <mxPoint x="3010" y="719.8" as="sourcePoint" />
            <mxPoint x="3350" y="720" as="targetPoint" />
          </mxGeometry>
        </mxCell>
        <mxCell id="V8qR7yP_6RgvKTzQbs4i-15" value="" style="rounded=0;whiteSpace=wrap;html=1;fillColor=none;dashed=1;strokeWidth=3;" parent="1" vertex="1">
          <mxGeometry x="2720" y="640" width="460" height="640" as="geometry" />
        </mxCell>
        <mxCell id="V8qR7yP_6RgvKTzQbs4i-16" value="Test Basis" style="text;html=1;strokeColor=none;fillColor=none;align=center;verticalAlign=middle;whiteSpace=wrap;rounded=0;fontSize=24;fontStyle=1" parent="1" vertex="1">
          <mxGeometry x="2760" y="1140" width="120" height="60" as="geometry" />
        </mxCell>
        <mxCell id="V8qR7yP_6RgvKTzQbs4i-5" value="Implementation" style="rounded=0;whiteSpace=wrap;html=1;fontStyle=1;fontSize=24;strokeWidth=2;" parent="1" vertex="1">
          <mxGeometry x="3080" y="1160" width="200" height="80" as="geometry" />
        </mxCell>
        <mxCell id="V8qR7yP_6RgvKTzQbs4i-17" value="" style="shape=curlyBracket;whiteSpace=wrap;html=1;rounded=1;flipH=1;labelPosition=right;verticalLabelPosition=middle;align=left;verticalAlign=middle;strokeWidth=2;" parent="1" vertex="1">
          <mxGeometry x="3540" y="800" width="20" height="320" as="geometry" />
        </mxCell>
        <mxCell id="V8qR7yP_6RgvKTzQbs4i-18" value="Developement Testing : finding defects" style="text;html=1;strokeColor=none;fillColor=none;align=center;verticalAlign=middle;whiteSpace=wrap;rounded=0;fontStyle=1;fontSize=24;" parent="1" vertex="1">
          <mxGeometry x="3560" y="920" width="280" height="80" as="geometry" />
        </mxCell>
        <mxCell id="V8qR7yP_6RgvKTzQbs4i-19" value="gaining confidence" style="text;html=1;strokeColor=none;fillColor=none;align=center;verticalAlign=middle;whiteSpace=wrap;rounded=0;fontStyle=1;fontSize=24;" parent="1" vertex="1">
          <mxGeometry x="3560" y="680" width="240" height="80" as="geometry" />
        </mxCell>
        <mxCell id="99eaHwufiaXae5ccycro-1" value="Statement Coverage" style="ellipse;whiteSpace=wrap;html=1;fontSize=24;fontStyle=1;strokeWidth=3;" vertex="1" parent="1">
          <mxGeometry x="3200" y="1680" width="160" height="80" as="geometry" />
        </mxCell>
        <mxCell id="99eaHwufiaXae5ccycro-3" value="Condition&lt;br&gt;Coverage" style="ellipse;whiteSpace=wrap;html=1;fontSize=24;fontStyle=1;strokeWidth=3;fillColor=none;verticalAlign=middle;" vertex="1" parent="1">
          <mxGeometry x="3380" y="1610" width="240" height="156" as="geometry" />
        </mxCell>
      </root>
    </mxGraphModel>
  </diagram>
</mxfile>
